<svg width="90" height="90" viewBox="0 0 90 90" fill="none" xmlns="http://www.w3.org/2000/svg">
<path d="M55.2239 50.9797C55.1246 50.9797 55.0439 50.8991 55.0439 50.7997C55.0456 49.4438 55.8028 48.2018 57.0077 47.5795C55.9549 45.4629 56.6573 42.8932 58.6403 41.6064C60.6232 40.3196 63.2561 40.725 64.7603 42.5485C66.1534 41.7805 67.8484 41.8051 69.2188 42.6132C70.5889 43.4212 71.4308 44.8925 71.4329 46.4833C71.4329 46.5787 71.4329 46.6633 71.4329 46.7659C72.1061 47.0851 72.6818 47.5784 73.0997 48.1951C73.137 48.2482 73.1429 48.3172 73.1152 48.3757C73.0873 48.4343 73.0303 48.4734 72.9656 48.4781C72.9008 48.4829 72.8387 48.4525 72.8027 48.3985C72.3985 47.8015 71.8329 47.3313 71.1719 47.0431C71.101 47.0125 71.0576 46.9402 71.0639 46.8631C71.0764 46.7382 71.0823 46.6126 71.0819 46.4869C71.0798 44.9978 70.2781 43.6244 68.9822 42.8904C67.6864 42.1565 66.0963 42.175 64.8179 42.9391C64.7393 42.9865 64.6378 42.967 64.5821 42.8941C63.7736 41.8379 62.5175 41.2205 61.1873 41.2255C59.6714 41.2254 58.2677 42.0247 57.4945 43.3287C56.7212 44.6326 56.6927 46.2475 57.4199 47.5777C57.4441 47.6215 57.4487 47.6735 57.4331 47.7208C57.4172 47.7683 57.3825 47.807 57.3371 47.8279C56.1643 48.3519 55.4077 49.5151 55.4039 50.7997C55.4039 50.8991 55.3233 50.9797 55.2239 50.9797Z" fill="#372168"/>
<path d="M63.8513 43.6842C63.8052 43.6846 63.7608 43.6671 63.7271 43.6356C63.6931 43.6018 63.6738 43.5559 63.6738 43.5078C63.6738 43.4597 63.6931 43.4138 63.7271 43.38C64.1019 42.986 64.5454 42.6632 65.0357 42.4278C65.1235 42.3932 65.2233 42.4325 65.2639 42.5178C65.3046 42.6029 65.2726 42.7052 65.1905 42.7518C64.7405 42.9696 64.3332 43.2666 63.9881 43.6284C63.9526 43.6657 63.9028 43.686 63.8513 43.6842Z" fill="#372168"/>
<path d="M57.2615 47.8548C57.1911 47.855 57.1272 47.8141 57.0977 47.7504C57.0554 47.6604 57.0941 47.5533 57.1841 47.511C57.6613 47.2901 58.1811 47.1764 58.7069 47.178C58.8149 47.178 58.9229 47.178 59.0273 47.1906C59.0752 47.1947 59.1193 47.2178 59.1501 47.2545C59.1809 47.2914 59.1956 47.3389 59.1911 47.3868C59.1825 47.4856 59.0955 47.5589 58.9967 47.5506C58.9013 47.5506 58.8041 47.538 58.7069 47.538C58.2339 47.5366 57.7662 47.6392 57.3371 47.8386C57.3133 47.849 57.2876 47.8546 57.2615 47.8548Z" fill="#372168"/>
<path d="M71.2331 47.0394C71.2089 47.039 71.1852 47.034 71.1629 47.025C70.6477 46.8074 70.091 46.7061 69.5321 46.728C69.4327 46.728 69.3521 46.6474 69.3521 46.548C69.3521 46.4487 69.4327 46.368 69.5321 46.368C70.1441 46.3437 70.7537 46.455 71.3177 46.6938C71.3963 46.7273 71.4406 46.8115 71.4235 46.8952C71.4066 46.9789 71.333 47.0392 71.2475 47.0394H71.2331Z" fill="#372168"/>
<path d="M17.0477 30.3534C16.9483 30.3534 16.8677 30.2728 16.8677 30.1734C16.8684 28.8162 17.6269 27.5731 18.8333 26.9514C17.7747 24.8342 18.4744 22.2597 20.4589 20.9695C22.4435 19.6792 25.0805 20.0846 26.5859 21.9114C27.9794 21.1414 29.6763 21.1653 31.0477 21.9739C32.4191 22.7826 33.2614 24.2559 33.2621 25.848C33.2621 25.9434 33.2621 26.028 33.2621 26.1324C33.9358 26.4508 34.5115 26.9444 34.9289 27.5616C34.9557 27.6012 34.9656 27.6498 34.9564 27.6968C34.9474 27.7438 34.9199 27.7852 34.8803 27.8118C34.7982 27.8663 34.6873 27.8447 34.6319 27.7632C34.2271 27.166 33.6608 26.696 32.9993 26.4078C32.9291 26.3767 32.8864 26.3043 32.8931 26.2278C32.9055 26.1029 32.9114 25.9772 32.9111 25.8516C32.9098 24.3612 32.1074 22.9865 30.8105 22.2525C29.5134 21.5183 27.922 21.5379 26.6435 22.3038C26.5648 22.3511 26.4633 22.3317 26.4077 22.2588C25.5998 21.2015 24.3434 20.5834 23.0129 20.5884C21.4964 20.5879 20.0922 21.3874 19.3187 22.6919C18.5453 23.9963 18.5174 25.6122 19.2455 26.9424C19.2694 26.9865 19.2739 27.0385 19.2579 27.086C19.2417 27.1336 19.2066 27.1721 19.1609 27.1926C17.9906 27.7213 17.238 28.8857 17.2367 30.1698C17.2377 30.2198 17.218 30.2679 17.1821 30.3028C17.1463 30.3376 17.0976 30.3559 17.0477 30.3534Z" fill="#372168"/>
<path d="M25.679 23.0562C25.6328 23.056 25.5881 23.038 25.5548 23.0058C25.485 22.9356 25.485 22.8222 25.5548 22.752C25.929 22.3579 26.3718 22.0352 26.8616 21.7998C26.9198 21.7695 26.9898 21.7735 27.0441 21.8098C27.0987 21.846 27.1293 21.9092 27.1239 21.9744C27.1185 22.0397 27.078 22.0969 27.0182 22.1238C26.567 22.3405 26.1589 22.6375 25.814 23.0004C25.7789 23.0373 25.73 23.0574 25.679 23.0562Z" fill="#372168"/>
<path d="M19.0854 27.2196C19.0021 27.2183 18.9305 27.1598 18.9125 27.0784C18.8945 26.9971 18.9348 26.9139 19.0098 26.8776C19.4867 26.6553 20.0065 26.541 20.5326 26.5428C20.6396 26.5422 20.7465 26.5469 20.853 26.5572C20.9519 26.5658 21.0251 26.6527 21.0168 26.7516C21.0127 26.7994 20.9897 26.8435 20.9528 26.8743C20.916 26.9051 20.8683 26.9199 20.8206 26.9154C20.7252 26.9154 20.628 26.9028 20.5326 26.9028C20.0589 26.9015 19.5907 27.0041 19.161 27.2034C19.1371 27.2138 19.1115 27.2194 19.0854 27.2196Z" fill="#372168"/>
<path d="M33.0625 26.4114C33.0384 26.4109 33.0146 26.406 32.9923 26.397C32.4764 26.1794 31.9191 26.078 31.3597 26.1C31.2603 26.1 31.1797 26.0194 31.1797 25.92C31.1797 25.8206 31.2603 25.74 31.3597 25.74C31.9722 25.7161 32.5824 25.8273 33.1471 26.0658C33.2258 26.0993 33.27 26.1835 33.2529 26.2672C33.236 26.3509 33.1624 26.4112 33.0769 26.4114H33.0625Z" fill="#372168"/>
<path d="M56.4319 52.0362C56.3467 52.2522 56.2621 52.4646 56.1781 52.6734C54.7147 56.2734 53.0353 59.0508 51.8923 60.5466C51.6993 60.8003 51.4536 61.0091 51.1723 61.1586C50.8794 61.3152 50.5554 61.4051 50.2237 61.4214H40.5847C40.2529 61.4051 39.9289 61.3152 39.6361 61.1586C39.354 61.0101 39.1081 60.8012 38.9161 60.5466C37.7731 59.0508 36.0919 56.2771 34.6303 52.6734C34.5462 52.4646 34.4616 52.2522 34.3765 52.0362C32.5081 47.1996 31.0681 40.986 31.7881 34.4196C33.1669 21.7566 42.3595 13.8007 44.8075 11.8873C45.159 11.6118 45.6529 11.6118 46.0045 11.8873C48.4525 13.8007 57.6451 21.7566 59.0239 34.4196C59.7385 40.986 58.3093 47.1996 56.4319 52.0362Z" fill="white"/>
<path fill-rule="evenodd" clip-rule="evenodd" d="M40.5686 61.7797H50.1194H50.2418C50.6275 61.7595 51.0041 61.6549 51.3452 61.4737C51.6713 61.2962 51.9555 61.0507 52.1786 60.7537C52.7312 60.0319 54.6734 57.3229 56.5112 52.7977C56.5576 52.6685 56.6114 52.538 56.6656 52.4066C56.6998 52.3236 56.734 52.2404 56.7668 52.1569C58.3886 47.9791 60.158 41.5027 59.3822 34.3639C58.0016 21.6919 48.9638 13.7269 46.226 11.5867C45.7441 11.2104 45.068 11.2104 44.5862 11.5867C41.8484 13.7269 32.8088 21.6919 31.43 34.3639C30.6542 41.5027 32.4236 47.9791 34.0436 52.1587L34.2992 52.7995C36.1334 57.3193 38.081 60.0337 38.6318 60.7537C38.8535 61.0532 39.1394 61.2993 39.4688 61.4737C39.8084 61.6551 40.1839 61.7597 40.5686 61.7797ZM50.2076 61.0597H40.6928H40.6082C40.3274 61.0464 40.0532 60.9708 39.8054 60.8383C39.5698 60.7141 39.3649 60.539 39.206 60.3253C38.666 59.6197 36.767 56.9737 34.967 52.5367C34.8935 52.3552 34.8214 52.1725 34.7481 51.9871L34.715 51.9031C33.1238 47.7955 31.385 41.4379 32.1464 34.4431C33.4946 22.0555 42.347 14.2525 45.029 12.1555C45.2507 11.9828 45.5614 11.9828 45.7832 12.1555C48.4634 14.2525 57.3158 22.0519 58.6658 34.4431C59.4254 41.4415 57.6884 47.8009 56.0954 51.9031C56.0126 52.1173 55.928 52.3279 55.8434 52.5367C54.0398 56.9791 52.1444 59.6215 51.6044 60.3271C51.4438 60.5395 51.2386 60.7139 51.0032 60.8383C50.7576 60.9702 50.4858 61.0458 50.2076 61.0597Z" fill="#372168"/>
<path fill-rule="evenodd" clip-rule="evenodd" d="M39.638 61.1585L30.3788 66.6683C30.2463 66.7475 30.075 66.706 29.9936 66.5747L29.9612 66.5189C27.3311 62.1352 28.4465 56.4722 32.5424 53.4131L34.3802 52.0361C34.4643 52.2521 34.5489 52.4645 34.634 52.6733C36.0956 56.2733 37.7768 59.0507 38.9198 60.5465C39.1113 60.8007 39.3567 61.0097 39.638 61.1585Z" fill="#FF7D7D"/>
<path fill-rule="evenodd" clip-rule="evenodd" d="M29.6908 66.7637C29.8066 66.9513 30.0105 67.0661 30.2308 67.0679C30.352 67.0694 30.4713 67.0382 30.5764 66.9779L39.8356 61.4681C39.9478 61.4015 40.0151 61.2797 40.0117 61.1493C40.0084 61.019 39.9348 60.9006 39.8194 60.8399C39.5838 60.7159 39.379 60.5406 39.22 60.3269C38.68 59.6213 36.781 56.9753 34.981 52.5383C34.9076 52.3569 34.8354 52.1742 34.7623 51.989C34.7512 51.9609 34.7402 51.9328 34.729 51.9047C34.6882 51.7994 34.6001 51.7195 34.4914 51.6887C34.3834 51.6587 34.2677 51.6806 34.1782 51.7481L32.3404 53.1251C28.0831 56.2793 26.9217 62.153 29.6584 66.6899L29.6908 66.7475C29.6914 66.7529 29.6914 66.7583 29.6908 66.7637ZM32.758 53.6939L34.2178 52.5995L34.2988 52.8011C36.133 57.3209 38.0806 60.0353 38.6314 60.7553C38.7326 60.8901 38.8471 61.0145 38.9734 61.1261L30.2596 66.3119C27.7178 62.0902 28.7993 56.6285 32.758 53.6939Z" fill="#372168"/>
<path fill-rule="evenodd" clip-rule="evenodd" d="M60.8506 66.5189L60.8182 66.5747C60.7369 66.706 60.5655 66.7475 60.433 66.6683L51.1738 61.1585C51.4552 61.009 51.7009 60.8002 51.8938 60.5465C53.0368 59.0507 54.7162 56.2769 56.1796 52.6733C56.2637 52.4645 56.3483 52.2521 56.4334 52.0361L58.2712 53.4131C62.3666 56.4728 63.4812 62.1358 60.8506 66.5189Z" fill="#FF7D7D"/>
<path fill-rule="evenodd" clip-rule="evenodd" d="M60.262 66.9798C60.361 67.0371 60.4733 67.0675 60.5878 67.068C60.8051 67.0639 61.0052 66.9492 61.1188 66.7638L61.1368 66.7332L61.1566 66.699C63.8973 62.161 62.7383 56.2831 58.48 53.1252L56.6422 51.7482C56.5524 51.6802 56.4358 51.6582 56.3272 51.6888C56.2185 51.7196 56.1305 51.7995 56.0896 51.9048C56.0068 52.119 55.9222 52.3296 55.8376 52.5384C54.034 56.9808 52.1386 59.6232 51.5986 60.3288C51.4377 60.5412 51.2325 60.7164 50.9974 60.8418C50.8867 60.9057 50.8181 61.0236 50.8174 61.1514C50.8156 61.2819 50.8844 61.4031 50.9974 61.4682L60.262 66.9798ZM60.559 66.3192L51.8452 61.1334H51.8362C51.9653 61.0224 52.0828 60.8989 52.1872 60.7644C52.7398 60.0426 54.682 57.3336 56.5198 52.8084L56.6008 52.6068L58.0624 53.7012C62.0213 56.6358 63.1021 62.0982 60.559 66.3192Z" fill="#372168"/>
<path fill-rule="evenodd" clip-rule="evenodd" d="M50.2234 72.8983C47.8132 76.1491 46.285 77.2669 45.664 78.1309C45.6042 78.2146 45.5076 78.2642 45.4048 78.2642C45.302 78.2642 45.2054 78.2146 45.1456 78.1309C44.5264 77.2669 42.9982 76.1509 40.5862 72.8983C37.5064 68.7457 40.5574 65.9539 41.8102 65.0521C42.0991 64.8462 42.4454 64.7358 42.8002 64.7371H48.0094C48.3647 64.7358 48.7116 64.846 49.0012 65.0521C50.254 65.9539 53.305 68.7457 50.2234 72.8983Z" fill="#FFB07D"/>
<path fill-rule="evenodd" clip-rule="evenodd" d="M44.8542 78.3396C44.9813 78.5176 45.1863 78.6234 45.405 78.624C45.6293 78.6281 45.8414 78.5217 45.972 78.3396C46.2638 77.9718 46.5808 77.6248 46.9207 77.301C48.2249 75.998 49.4284 74.5977 50.5206 73.1124C51.6403 71.604 52.0938 70.1136 51.8688 68.6736C51.5592 66.708 50.0778 65.3778 49.2192 64.7604C48.8686 64.5095 48.4479 64.3754 48.0168 64.377H42.8076C42.3771 64.375 41.9568 64.5093 41.607 64.7604C40.7556 65.3778 39.2616 66.708 38.9556 68.6736C38.7324 70.11 39.186 71.604 40.3056 73.1124C41.3968 74.5986 42.6003 75.9989 43.9056 77.301C44.2449 77.6253 44.5619 77.9724 44.8542 78.3396ZM42.0192 65.3454C42.2469 65.1823 42.5204 65.0954 42.8004 65.097H48.0096C48.2897 65.0954 48.5631 65.1823 48.7908 65.3454C49.5576 65.8962 50.8861 67.077 51.1507 68.7852C51.3433 70.0236 50.9347 71.3358 49.9357 72.684C48.8611 74.1425 47.6768 75.5168 46.3932 76.7952C46.0412 77.1338 45.7112 77.4945 45.405 77.8752C45.1001 77.4941 44.7707 77.1332 44.4186 76.7952C43.1345 75.5174 41.9503 74.1429 40.8762 72.684C39.8754 71.3358 39.4668 70.0236 39.6594 68.7852C39.9258 67.077 41.2524 65.8962 42.0192 65.3454Z" fill="#372168"/>
<path fill-rule="evenodd" clip-rule="evenodd" d="M45.4068 42.4998C49.2897 42.4998 52.4376 39.352 52.4376 35.469C52.4376 31.5861 49.2897 28.4382 45.4068 28.4382C41.5238 28.4382 38.376 31.5861 38.376 35.469C38.376 39.352 41.5238 42.4998 45.4068 42.4998Z" fill="#CFDDFF"/>
<path fill-rule="evenodd" clip-rule="evenodd" d="M38.0161 35.4677C38.0154 39.5493 41.3234 42.8586 45.4051 42.8597C49.4855 42.8558 52.7927 39.5493 52.7977 35.4689C52.7977 31.3872 49.4891 28.0785 45.4075 28.0781C41.326 28.0778 38.0168 31.3862 38.0161 35.4677ZM38.7361 35.4702C38.7354 31.7861 41.7212 28.7992 45.4051 28.7981C49.0883 28.8012 52.0738 31.7858 52.0777 35.4689C52.0777 39.1528 49.0915 42.1394 45.4075 42.1397C41.7236 42.1401 38.7368 39.1541 38.7361 35.4702Z" fill="#372168"/>
<path d="M60.1398 58.68C60.0657 58.6798 59.9991 58.6341 59.9724 58.5648C59.7536 57.9947 59.4501 57.4607 59.0724 56.9808C59.0109 56.9029 59.024 56.7895 59.1021 56.7279C59.1801 56.6664 59.2935 56.6797 59.355 56.7576C59.7566 57.2654 60.0788 57.8309 60.3108 58.4352C60.3463 58.5277 60.3004 58.6314 60.2082 58.6674C60.1866 58.6764 60.1632 58.6807 60.1398 58.68Z" fill="#372168"/>
<path d="M51.6094 20.8674C52.2034 21.6445 52.7556 22.4527 53.2636 23.2884L51.6094 20.8674Z" fill="white"/>
<path d="M53.2656 23.4683C53.2024 23.4687 53.1437 23.4359 53.1107 23.3819C52.6048 22.5521 52.0556 21.7493 51.4656 20.9771C51.4233 20.9262 51.4121 20.8562 51.4368 20.7948C51.4614 20.7334 51.5179 20.6904 51.5836 20.683C51.6495 20.6756 51.714 20.705 51.7518 20.7593C52.3501 21.5411 52.9064 22.354 53.4185 23.1947C53.4695 23.2797 53.4421 23.39 53.3573 23.4413C53.3298 23.4584 53.298 23.4678 53.2656 23.4683Z" fill="#372168"/>
<path d="M46.1986 74.0196C46.1284 74.0196 46.0645 73.9788 46.0352 73.9149C46.0056 73.8511 46.0161 73.7761 46.0618 73.7226C46.4866 73.224 46.8988 72.7056 47.3218 72.1332C48.103 71.0802 48.4252 70.0524 48.2848 69.0732C48.2776 69.0259 48.2895 68.9778 48.3178 68.9393C48.3462 68.9008 48.3887 68.8752 48.436 68.868C48.5345 68.8541 48.6256 68.9225 48.6394 69.021C48.796 70.101 48.4504 71.2134 47.6098 72.3438C47.1814 72.9234 46.7638 73.449 46.3336 73.953C46.3005 73.9939 46.2512 74.0182 46.1986 74.0196Z" fill="#372168"/>
<path d="M47.927 67.8041C47.8651 67.8047 47.8073 67.7733 47.774 67.7213C47.5706 67.3988 47.3289 67.1019 47.054 66.8375C47.0078 66.7929 46.9889 66.7268 47.0043 66.6644C47.0198 66.6019 47.0675 66.5526 47.1294 66.5348C47.1914 66.5171 47.258 66.5337 47.3042 66.5783C47.6021 66.8627 47.8651 67.1819 48.0872 67.5287C48.1128 67.569 48.1212 67.618 48.1108 67.6644C48.1004 67.7111 48.0717 67.7516 48.0314 67.7771C48.0003 67.7966 47.9637 67.8061 47.927 67.8041Z" fill="#372168"/>
<path d="M45.6354 37.1719C45.5958 37.1722 45.5572 37.1596 45.5256 37.1359L43.992 35.9569C43.9254 35.9252 43.8847 35.8561 43.8896 35.7825C43.8944 35.7088 43.9437 35.6457 44.0139 35.623C44.0841 35.6003 44.161 35.6228 44.208 35.6797L45.7434 36.8569C45.8217 36.9177 45.8362 37.0304 45.7758 37.1089C45.7408 37.1499 45.6892 37.1729 45.6354 37.1719Z" fill="#372168"/>
<path d="M47.1688 36.8783C47.129 36.8781 47.0905 36.865 47.059 36.8405L43.999 34.4861C43.9605 34.4571 43.9353 34.4141 43.9288 34.3664C43.9225 34.3187 43.9355 34.2705 43.9648 34.2323C44.0255 34.154 44.1381 34.1394 44.2168 34.1999L47.2768 36.5561C47.3558 36.6164 47.3711 36.7291 47.311 36.8081C47.277 36.8522 47.2244 36.8781 47.1688 36.8783Z" fill="#372168"/>
<path d="M47.1691 35.3754C47.1295 35.3758 47.091 35.3632 47.0593 35.3394L46.2151 34.6914C46.1361 34.6307 46.1212 34.5175 46.1818 34.4385C46.2425 34.3595 46.3557 34.3445 46.4347 34.4052L47.2789 35.0532C47.3396 35.1004 47.3637 35.1808 47.3389 35.2535C47.3142 35.3263 47.246 35.3752 47.1691 35.3754Z" fill="#372168"/>
<path d="M47.547 58.8599H37.548C37.3491 58.8599 37.188 58.6988 37.188 58.4999C37.188 58.301 37.3491 58.1399 37.548 58.1399H47.556C47.7547 58.1399 47.916 58.301 47.916 58.4999C47.916 58.6988 47.7547 58.8599 47.556 58.8599H47.547Z" fill="#372168"/>
<path d="M53.2728 58.8599H49.6422C49.4433 58.8599 49.2822 58.6988 49.2822 58.4999C49.2822 58.301 49.4433 58.1399 49.6422 58.1399H53.2728C53.4717 58.1399 53.6328 58.301 53.6328 58.4999C53.6328 58.6988 53.4717 58.8599 53.2728 58.8599Z" fill="#372168"/>
<path d="M42.3288 70.7796C42.2539 70.7801 42.1866 70.7342 42.1596 70.6644C41.7902 69.7712 41.8754 68.7547 42.3882 67.9356C42.4128 67.8943 42.453 67.8646 42.4996 67.8531C42.5462 67.8416 42.5955 67.8493 42.6366 67.8744C42.7214 67.9257 42.7487 68.036 42.6978 68.121C42.2436 68.8462 42.1686 69.7462 42.4962 70.5366C42.5316 70.6291 42.4857 70.7328 42.3936 70.7688C42.3727 70.7758 42.3507 70.7796 42.3288 70.7796Z" fill="#372168"/>
</svg>
