<svg width="90" height="90" viewBox="0 0 90 90" fill="none" xmlns="http://www.w3.org/2000/svg">
<path fill-rule="evenodd" clip-rule="evenodd" d="M70.9704 31.3669L73.098 33.1795C73.4184 33.4545 73.4576 33.9362 73.1862 34.2595L52.218 58.9555C51.9429 59.2759 51.4613 59.3151 51.138 59.0437L39.1014 48.8161C38.7801 48.5416 38.7407 48.0592 39.0132 47.7361L59.9904 23.0455C60.2654 22.7251 60.7471 22.6858 61.0704 22.9573L68.5422 29.3041" fill="#A1D0B5"/>
<path d="M51.626 59.5873C51.3582 59.587 51.099 59.4912 50.8952 59.3173L38.8586 49.0897C38.384 48.6851 38.326 47.9728 38.729 47.4967L59.708 22.8097C60.1121 22.3342 60.8253 22.2762 61.301 22.6801L68.771 29.0287C68.8886 29.1052 68.951 29.2431 68.931 29.3819C68.9111 29.5208 68.8121 29.6353 68.6776 29.6755C68.5431 29.7156 68.3977 29.6738 68.3048 29.5687L60.8348 23.2201C60.7518 23.1499 60.6444 23.1157 60.536 23.1247C60.4278 23.133 60.3274 23.1841 60.257 23.2669L39.278 47.9629C39.208 48.0461 39.1731 48.1532 39.1808 48.2617C39.1898 48.3703 39.2417 48.4705 39.3248 48.5407L51.3614 58.7683C51.4444 58.8392 51.5522 58.874 51.6609 58.8653C51.7697 58.8565 51.8705 58.8047 51.941 58.7215L72.9182 34.0309C72.989 33.9483 73.0239 33.8407 73.0151 33.7323C73.0062 33.6238 72.9546 33.5233 72.8714 33.4531L70.7384 31.6405C70.6193 31.5055 70.6182 31.3034 70.7359 31.1671C70.8534 31.0307 71.0538 31.0024 71.2046 31.1005L73.3376 32.9131C73.8123 33.3178 73.8702 34.03 73.4672 34.5061L52.4882 59.1877C52.2956 59.4172 52.0184 59.5594 51.7196 59.5819L51.626 59.5873Z" fill="#372168"/>
<path d="M55.3932 32.9922C55.2526 32.9922 55.125 32.9105 55.0661 32.7829C55.0075 32.6552 55.0283 32.5049 55.1196 32.3982L59.2794 27.5022C59.4981 27.2462 59.873 27.193 60.1542 27.378C60.808 27.8152 61.6293 27.92 62.3718 27.6606C62.7464 27.5296 63.1622 27.6055 63.4662 27.8604L64.647 28.8648C64.7451 28.9481 64.7912 29.0774 64.7681 29.2039C64.7451 29.3305 64.6562 29.435 64.535 29.4784C64.4139 29.5216 64.2789 29.4971 64.1808 29.4138L63 28.4094C62.8882 28.319 62.7374 28.2938 62.6022 28.3428C61.6646 28.6625 60.6325 28.5379 59.7978 28.0044L55.6686 32.8644C55.6002 32.9456 55.4994 32.9922 55.3932 32.9922Z" fill="#372168"/>
<path d="M64.9586 40.1237C64.8181 40.1237 64.6904 40.042 64.6316 39.9143C64.5729 39.7867 64.5938 39.6364 64.685 39.5297L68.3228 35.2475C67.6601 34.5088 67.3705 33.508 67.5362 32.5295C67.5623 32.3884 67.5134 32.2438 67.4066 32.1479L66.224 31.1453C66.1515 31.0832 66.1065 30.9948 66.0991 30.8998C66.0917 30.8045 66.1223 30.7102 66.1844 30.6377C66.313 30.4872 66.5389 30.4687 66.6902 30.5963L67.8728 31.5989C68.174 31.8574 68.3156 32.2559 68.2454 32.6465C68.1099 33.4212 68.3466 34.2146 68.8844 34.7885C69.1116 35.0367 69.1193 35.4151 68.9024 35.6723L65.2322 39.9923C65.1649 40.0742 65.0648 40.1224 64.9586 40.1237Z" fill="#372168"/>
<path d="M58.1723 45.7901C56.7323 45.7901 55.0277 45.1349 53.5553 43.8839C51.0353 41.7401 50.1263 38.6495 51.5339 36.9935C52.9415 35.3375 56.1365 35.7335 58.6601 37.8773C59.0343 38.1955 59.3828 38.5427 59.7023 38.9159C59.8315 39.0674 59.8133 39.2951 59.6618 39.4244C59.5102 39.5536 59.2825 39.5354 59.1533 39.3839C58.8595 39.0395 58.5387 38.7193 58.1939 38.4263C55.9745 36.5399 53.2313 36.1061 52.0739 37.4597C50.9165 38.8133 51.8021 41.4485 54.0179 43.3295C56.2337 45.2105 58.9805 45.6497 60.1379 44.2961C60.7193 43.6121 60.7967 42.5393 60.3503 41.3531C60.2806 41.1666 60.3753 40.9592 60.5618 40.8896C60.7482 40.8199 60.9556 40.9146 61.0253 41.1011C61.5653 42.5411 61.4411 43.8731 60.6869 44.7623C60.0965 45.4571 59.2001 45.7901 58.1723 45.7901Z" fill="#372168"/>
<path d="M45.862 51.3343C45.7762 51.3343 45.6932 51.3037 45.628 51.2479L44.4472 50.2453C44.1455 49.9872 44.003 49.5887 44.0728 49.1977C44.208 48.4234 43.972 47.6303 43.4356 47.0557C43.2076 46.8079 43.1998 46.429 43.4176 46.1719L47.7574 41.0653C47.8339 40.9478 47.9718 40.8853 48.1106 40.9053C48.2495 40.9253 48.364 41.0243 48.4042 41.1587C48.4443 41.2932 48.4025 41.4386 48.2974 41.5315L43.99 46.6021C44.6503 47.3401 44.9395 48.338 44.7766 49.3147C44.7485 49.456 44.798 49.6015 44.9062 49.6963L46.087 50.6989C46.2028 50.7963 46.2452 50.9558 46.1932 51.0978C46.1414 51.24 46.0062 51.3345 45.8548 51.3343H45.862Z" fill="#372168"/>
<path d="M52.5314 54.5813C52.4034 54.5797 52.2785 54.5415 52.1714 54.4715C51.518 54.035 50.6978 53.9304 49.9556 54.1889C49.581 54.3199 49.1652 54.244 48.8612 53.9891L47.6804 52.9847C47.5613 52.8497 47.5602 52.6476 47.6779 52.5113C47.7954 52.375 47.9958 52.3466 48.1466 52.4447L49.3274 53.4491C49.4392 53.5395 49.59 53.5647 49.7252 53.5157C50.6621 53.1958 51.6939 53.3204 52.5278 53.8541L56.837 48.7835C56.9657 48.6319 57.1931 48.6134 57.3446 48.7421C57.4962 48.8708 57.5147 49.0981 57.386 49.2497L53.0462 54.3563C52.9163 54.5037 52.7278 54.5862 52.5314 54.5813Z" fill="#372168"/>
<path d="M35.4933 21.0108L21.0882 29.0583C20.8869 29.1708 20.8148 29.4252 20.9273 29.6265L37.0723 58.5264C37.1847 58.7277 37.4392 58.7998 37.6405 58.6873L52.0456 50.6398C52.247 50.5273 52.319 50.2729 52.2065 50.0716L36.0616 21.1717C35.9491 20.9704 35.6947 20.8984 35.4933 21.0108Z" fill="#A1D0B5"/>
<path fill-rule="evenodd" clip-rule="evenodd" d="M36.7867 58.6836C36.9251 58.9293 37.185 59.0814 37.4671 59.0814C37.5996 59.0814 37.7297 59.0474 37.8451 58.9824L52.2451 50.9346C52.4251 50.8338 52.5578 50.6659 52.6137 50.4673C52.6697 50.2688 52.6447 50.0562 52.5439 49.8762L36.3979 20.9772C36.1875 20.6033 35.715 20.4692 35.3395 20.6766L20.9395 28.7262C20.7591 28.8266 20.6263 28.9948 20.5701 29.1933C20.5142 29.392 20.5395 29.6048 20.6407 29.7846L36.7867 58.6836ZM35.6959 21.2994C35.7053 21.2967 35.7153 21.2967 35.7247 21.2994C35.745 21.2992 35.7639 21.3093 35.7751 21.3264L51.9211 50.2254C51.9269 50.2393 51.9269 50.2547 51.9211 50.2686C51.9164 50.2834 51.9069 50.296 51.8941 50.3046L37.4941 58.3524C37.4801 58.3573 37.4649 58.3573 37.4509 58.3524C37.4365 58.3481 37.4243 58.3384 37.4167 58.3254L21.2689 29.4264C21.264 29.4118 21.264 29.396 21.2689 29.3814C21.2732 29.367 21.2829 29.3548 21.2959 29.3472L35.6959 21.2994Z" fill="#372168"/>
<path d="M28.5118 37.9296C28.382 37.9307 28.2616 37.8619 28.1968 37.7496L25.063 32.1408C24.8997 31.8463 24.9807 31.4762 25.252 31.2768C25.8904 30.8167 26.2758 30.0836 26.2924 29.2968C26.2994 28.9004 26.5158 28.5374 26.8612 28.3428L28.2148 27.5868C28.3874 27.4977 28.5994 27.5616 28.6941 27.7312C28.789 27.9005 28.7321 28.1147 28.5658 28.215L27.2122 28.971C27.0882 29.0435 27.012 29.1766 27.0124 29.3202C26.982 30.3098 26.5048 31.2325 25.7146 31.8294L28.8178 37.3896C28.8822 37.5012 28.882 37.6387 28.8174 37.7501C28.7528 37.8617 28.6335 37.9301 28.5046 37.9296H28.5118Z" fill="#372168"/>
<path d="M38.5378 31.4496C38.4081 31.4507 38.2876 31.3819 38.2228 31.2696L35.4778 26.3664C34.5557 26.7286 33.5189 26.6512 32.6608 26.1558C32.5377 26.0815 32.3845 26.0773 32.2576 26.145L30.9058 26.901C30.7323 27.0004 30.5111 26.9404 30.4117 26.7669C30.3124 26.5934 30.3723 26.3722 30.5458 26.2728L31.8976 25.5168C32.2449 25.3244 32.6679 25.3298 33.01 25.5312C33.6881 25.9299 34.5145 25.9859 35.2402 25.6824C35.5518 25.5568 35.9084 25.6815 36.0736 25.974L38.8384 30.9222C38.9029 31.0338 38.9027 31.1713 38.8381 31.2827C38.7735 31.3943 38.6541 31.4627 38.5252 31.4622L38.5378 31.4496Z" fill="#372168"/>
<path d="M34.5616 44.2963C33.0784 44.2963 31.8346 43.7563 31.2496 42.7087C30.1894 40.8115 31.678 37.9549 34.567 36.3403C34.9954 36.0996 35.4427 35.8942 35.9044 35.7265C36.0912 35.6584 36.2981 35.7547 36.3661 35.9416C36.4341 36.1284 36.3378 36.3352 36.151 36.4033C35.7255 36.5583 35.3131 36.7473 34.918 36.9685C32.3746 38.3887 31.012 40.8061 31.8778 42.3577C32.7436 43.9093 35.5174 44.0137 38.0608 42.5917C40.6042 41.1697 41.9668 38.7541 41.101 37.2025C40.6654 36.4231 39.6916 35.9749 38.4316 35.9749H38.4172C38.2183 35.9749 38.0572 35.8138 38.0572 35.6149C38.0572 35.416 38.2183 35.2549 38.4172 35.2549H38.4316C39.9616 35.2549 41.1622 35.8363 41.7292 36.8515C42.7894 38.7487 41.3008 41.6071 38.4118 43.2217C37.2393 43.8979 35.915 44.2677 34.5616 44.2963Z" fill="#372168"/>
<path d="M40.651 54.1187C40.4493 54.118 40.2511 54.064 40.0768 53.9621C39.3984 53.5645 38.5726 53.5085 37.8466 53.8109C37.5345 53.9376 37.1769 53.8127 37.0114 53.5193L33.7426 47.6693C33.6433 47.4953 33.7038 47.2737 33.8776 47.1743C34.0515 47.075 34.2733 47.1353 34.3726 47.3093L37.6126 53.1179C38.535 52.7568 39.5714 52.8342 40.4296 53.3285C40.5519 53.4034 40.7045 53.4083 40.831 53.3411L42.1846 52.5833C42.3585 52.484 42.5803 52.5443 42.6796 52.7183C42.779 52.8922 42.7185 53.114 42.5446 53.2133L41.191 53.9693C41.0271 54.0651 40.8409 54.1166 40.651 54.1187Z" fill="#372168"/>
<path d="M44.7066 51.9587C44.5426 51.9598 44.3986 51.85 44.3563 51.6918C44.314 51.5334 44.384 51.3664 44.5266 51.2855L45.8802 50.5295C46.004 50.4568 46.08 50.324 46.08 50.1803C46.1084 49.19 46.5859 48.2666 47.3778 47.6711L44.1378 41.8625C44.0735 41.7504 44.0739 41.6123 44.1388 41.5006C44.204 41.3888 44.3237 41.32 44.4529 41.3206C44.5824 41.3209 44.7017 41.3904 44.766 41.5025L48.0348 47.3543C48.1986 47.6483 48.1176 48.0182 47.8458 48.2165C47.2073 48.6764 46.8219 49.4098 46.8054 50.1965C46.7987 50.5934 46.5822 50.957 46.2366 51.1523L44.883 51.9083C44.8295 51.94 44.7687 51.9575 44.7066 51.9587Z" fill="#372168"/>
<path d="M56.5539 21.3692L40.7239 18.0563C40.4096 17.9906 40.1015 18.192 40.0357 18.5063L33.3219 50.5875C33.2561 50.9018 33.4576 51.2099 33.7719 51.2757L49.6019 54.5885C49.9162 54.6543 50.2243 54.4529 50.2901 54.1386L57.0039 22.0574C57.0697 21.7431 56.8682 21.435 56.5539 21.3692Z" fill="#B3E2C7"/>
<path fill-rule="evenodd" clip-rule="evenodd" d="M49.5054 54.9396C49.5688 54.9524 49.6334 54.9589 49.698 54.9594C50.144 54.9573 50.5273 54.6423 50.616 54.2052L57.3318 22.1238C57.4377 21.6178 57.1165 21.121 56.6118 21.0096L40.779 17.7012C40.5344 17.6496 40.2791 17.6974 40.0698 17.8342C39.8605 17.9709 39.7141 18.1854 39.663 18.4302L32.949 50.5098C32.8973 50.7544 32.9452 51.0097 33.082 51.219C33.2186 51.4284 33.4332 51.5747 33.678 51.6258L49.5054 54.9396ZM49.8222 54.2045C49.7727 54.2383 49.7119 54.2509 49.653 54.2394L49.644 54.2322L33.8148 50.9184C33.7568 50.9073 33.7061 50.8727 33.6744 50.823C33.642 50.7737 33.6308 50.7132 33.6438 50.6556L40.3578 18.576C40.3702 18.5186 40.4044 18.4684 40.4532 18.4356C40.5027 18.4034 40.563 18.3922 40.6206 18.405L56.4498 21.717C56.5088 21.7275 56.561 21.7613 56.5949 21.8106C56.6287 21.8601 56.6413 21.921 56.6298 21.9798L49.9158 54.0594C49.9054 54.1185 49.8715 54.1707 49.8222 54.2045Z" fill="#372168"/>
<path d="M40.5322 29.6675C40.4224 29.6699 40.3176 29.622 40.2474 29.5376C40.1774 29.453 40.1497 29.3412 40.1722 29.2337L41.4898 22.9445C41.5586 22.6153 41.862 22.3891 42.1972 22.4171C42.9807 22.4897 43.7526 22.1896 44.2816 21.6071C44.5469 21.3116 44.9492 21.1793 45.3382 21.2597L46.8556 21.5783C47.0412 21.6269 47.156 21.8127 47.1166 22.0004C47.0772 22.1882 46.8975 22.3122 46.708 22.2821L45.1906 21.9653C45.0491 21.9382 44.9037 21.9882 44.809 22.0967C44.1376 22.8243 43.1723 23.2075 42.1846 23.1389L40.8778 29.3813C40.8434 29.5457 40.7 29.6643 40.5322 29.6675Z" fill="#372168"/>
<path d="M52.3424 31.3632C52.3179 31.3659 52.2931 31.3659 52.2686 31.3632C52.175 31.3437 52.0929 31.2877 52.0405 31.2078C51.9883 31.1277 51.97 31.0302 51.9896 30.9366L53.1398 25.4376C52.2104 25.1021 51.4827 24.3642 51.1598 23.4306C51.1171 23.2932 51.0048 23.189 50.8646 23.157L49.3472 22.8384C49.216 22.8177 49.1069 22.7262 49.0633 22.6006C49.0198 22.4751 49.0491 22.3358 49.1393 22.2382C49.2296 22.1407 49.3663 22.1009 49.4948 22.1346L51.0122 22.4514C51.3999 22.5347 51.7147 22.8168 51.8402 23.193C52.0913 23.9385 52.6777 24.523 53.4242 24.7716C53.7428 24.8799 53.9305 25.209 53.8616 25.5384L52.7006 31.0842C52.6622 31.2503 52.5128 31.3666 52.3424 31.3632Z" fill="#372168"/>
<path fill-rule="evenodd" clip-rule="evenodd" d="M49.2874 34.3297C50.3098 35.2135 50.8426 36.3097 50.623 37.3627C50.218 39.2977 47.4154 40.3507 44.3662 39.7117C41.317 39.0727 39.1714 36.9865 39.5764 35.0497C39.9814 33.1129 42.7822 32.0617 45.8332 32.7007C46.2949 32.7975 46.7482 32.9313 47.1886 33.1003" fill="#A1D0B5"/>
<path d="M46.1374 40.2696C45.5191 40.2664 44.9026 40.2001 44.2978 40.0716C42.757 39.7476 41.3818 39.06 40.4296 38.133C39.4342 37.1628 39.0076 36.045 39.229 34.983C39.6736 32.8554 42.6724 31.6782 45.9124 32.355C46.393 32.4562 46.865 32.5953 47.3236 32.7708C47.4473 32.8144 47.5375 32.9218 47.5589 33.0513C47.5805 33.1805 47.5299 33.3114 47.4271 33.3927C47.3241 33.4739 47.1854 33.493 47.0644 33.4422C46.6423 33.2799 46.2076 33.1522 45.7648 33.0606C42.9136 32.463 40.2982 33.3918 39.9346 35.1306C39.7636 35.9424 40.1146 36.8244 40.9318 37.6164C41.7886 38.4498 43.036 39.0708 44.4454 39.366C45.8548 39.6612 47.2462 39.5928 48.3658 39.1716C49.4278 38.7738 50.1064 38.1078 50.2756 37.296C50.4556 36.4176 50.0164 35.4366 49.0588 34.6086C48.9341 34.4738 48.931 34.2666 49.0516 34.1278C49.1722 33.9892 49.3778 33.9637 49.5286 34.0686C50.6914 35.0748 51.2188 36.306 50.9812 37.449C50.758 38.5092 49.9192 39.3624 48.6178 39.852C47.8226 40.1384 46.9825 40.2799 46.1374 40.2696Z" fill="#372168"/>
<path d="M40.9196 50.3352C40.8952 50.337 40.8703 50.337 40.8458 50.3352L39.3284 50.0166C38.9398 49.9342 38.6241 49.652 38.4986 49.275C38.2481 48.53 37.6622 47.9461 36.9164 47.6982C36.5975 47.5891 36.4092 47.2599 36.4772 46.9296L37.8506 40.3704C37.8913 40.1755 38.0825 40.0508 38.2772 40.0914C38.472 40.1321 38.5969 40.3231 38.5562 40.518L37.1918 47.0322C38.1223 47.366 38.8507 48.1043 39.1718 49.0392C39.2152 49.1764 39.3284 49.2799 39.4688 49.311L40.9862 49.6296C41.1851 49.65 41.3297 49.8276 41.3093 50.0265C41.289 50.2254 41.1113 50.37 40.9124 50.3496L40.9196 50.3352Z" fill="#372168"/>
<path d="M45.214 51.2171C45.1378 51.2173 45.0617 51.2095 44.9872 51.1937L43.4698 50.8769C43.275 50.8362 43.1501 50.645 43.1908 50.4503C43.2315 50.2553 43.4226 50.1306 43.6174 50.1713L45.1348 50.4899C45.2757 50.516 45.4199 50.4661 45.5146 50.3585C46.1854 49.6291 47.1524 49.2455 48.1408 49.3163L49.5034 42.8021C49.5441 42.6071 49.7352 42.4824 49.93 42.5231C50.1248 42.5638 50.2497 42.7547 50.209 42.9497L48.8356 49.5089C48.7659 49.8383 48.4619 50.0644 48.1264 50.0363C47.3439 49.967 46.5737 50.2665 46.0438 50.8463C45.8314 51.0806 45.5302 51.2153 45.214 51.2171Z" fill="#372168"/>
<path d="M25.5239 47.9555V42.7895C25.5239 41.0429 26.2178 39.3679 27.4532 38.1331C28.6883 36.8981 30.3636 36.2045 32.1101 36.2051H61.6553C65.2911 36.2062 68.2379 39.1537 68.2379 42.7895V63.6281C68.2379 67.2646 65.2901 70.2125 61.6535 70.2125H32.1101C28.4734 70.2125 25.525 67.2648 25.5239 63.6281V50.4881" fill="white"/>
<path d="M61.6555 70.569H32.1103C28.2763 70.5651 25.1691 67.4586 25.1641 63.6246V50.4846C25.1641 50.2857 25.3252 50.1246 25.5241 50.1246C25.723 50.1246 25.8841 50.2857 25.8841 50.4846V63.6246C25.888 67.0614 28.6735 69.846 32.1103 69.849H61.6555C65.0908 69.844 67.8741 67.0599 67.8781 63.6246V42.7896C67.8741 39.3536 65.0897 36.5692 61.6537 36.5652H32.1103C28.6735 36.5683 25.888 39.3529 25.8841 42.7896V47.9592C25.8841 48.1581 25.723 48.3192 25.5241 48.3192C25.3252 48.3192 25.1641 48.1581 25.1641 47.9592V42.7896C25.168 38.9553 28.2759 35.8483 32.1103 35.8452H61.6555C65.4884 35.8503 68.5941 38.9567 68.5981 42.7896V63.6282C68.591 67.4593 65.4866 70.5631 61.6555 70.569Z" fill="#372168"/>
<path d="M64.6993 42.7626C64.6271 42.7626 64.562 42.7192 64.5337 42.6528C63.7273 40.7418 61.8541 39.5005 59.7799 39.5028H43.7581C43.6588 39.5028 43.5781 39.4222 43.5781 39.3228C43.5781 39.2235 43.6588 39.1428 43.7581 39.1428H59.7781C61.9968 39.1401 64.0009 40.4682 64.8631 42.5124C64.8822 42.5565 64.8829 42.6066 64.8651 42.6512C64.8471 42.6958 64.812 42.7313 64.7677 42.75C64.7459 42.7583 64.7227 42.7626 64.6993 42.7626Z" fill="#372168"/>
<path fill-rule="evenodd" clip-rule="evenodd" d="M59.1049 48.6108H67.8043C68.9972 48.6108 69.9643 49.578 69.9643 50.7708V54.7308C69.9643 55.9237 68.9972 56.8908 67.8043 56.8908H59.1049C57.0345 56.8878 55.356 55.2118 55.3501 53.1414V52.38C55.3478 51.3821 55.7421 50.4242 56.4463 49.7173C57.1506 49.0103 58.107 48.6123 59.1049 48.6108Z" fill="#FF7D7D"/>
<path fill-rule="evenodd" clip-rule="evenodd" d="M59.1049 57.2615H67.8043C68.4745 57.2615 69.1172 56.9946 69.5901 56.5196C70.063 56.0447 70.3272 55.4009 70.3243 54.7307V50.7707C70.3243 49.379 69.1961 48.2507 67.8043 48.2507H59.1049C56.8299 48.2527 54.986 50.0959 54.9829 52.3709V53.1395C54.9849 55.4153 56.8292 57.2596 59.1049 57.2615ZM55.7029 52.3709C55.706 50.4935 57.2275 48.9727 59.1049 48.9707L67.8043 48.9815C68.7985 48.9815 69.6043 49.7874 69.6043 50.7815V54.7415C69.6043 55.7357 68.7985 56.5415 67.8043 56.5415H59.1049C57.2268 56.5396 55.7049 55.0177 55.7029 53.1395V52.3709Z" fill="#372168"/>
<path d="M59.7781 67.2696H43.7581C43.6588 67.2696 43.5781 67.1889 43.5781 67.0896C43.5781 66.9902 43.6588 66.9096 43.7581 66.9096H59.7781C61.8526 66.9115 63.7262 65.6694 64.5319 63.7578C64.5553 63.696 64.6106 63.6521 64.6759 63.6433C64.7413 63.6343 64.8062 63.6618 64.8453 63.7151C64.8844 63.7682 64.8912 63.8384 64.8631 63.8982C64.0018 65.9435 61.9973 67.2724 59.7781 67.2696Z" fill="#372168"/>
<path fill-rule="evenodd" clip-rule="evenodd" d="M60.2693 54.389C61.1709 54.389 61.9019 53.658 61.9019 52.7564C61.9019 51.8548 61.1709 51.1238 60.2693 51.1238C59.3677 51.1238 58.6367 51.8548 58.6367 52.7564C58.6367 53.658 59.3677 54.389 60.2693 54.389Z" fill="#FFB07D"/>
<path fill-rule="evenodd" clip-rule="evenodd" d="M58.2749 52.756C58.2749 53.8565 59.167 54.7486 60.2675 54.7486C61.3677 54.7477 62.259 53.8562 62.2601 52.756C62.2601 51.6555 61.368 50.7634 60.2675 50.7634C59.167 50.7634 58.2749 51.6555 58.2749 52.756ZM58.9949 52.756C58.9949 52.0531 59.5646 51.4834 60.2675 51.4834C60.605 51.4834 60.9286 51.6175 61.1673 51.8562C61.406 52.0949 61.5401 52.4185 61.5401 52.756C61.5401 53.4589 60.9704 54.0286 60.2675 54.0286C59.5646 54.0286 58.9949 53.4589 58.9949 52.756Z" fill="#372168"/>
<path d="M39.9782 39.5353H38.036C37.9366 39.5353 37.856 39.4547 37.856 39.3553C37.856 39.2559 37.9366 39.1753 38.036 39.1753H39.9782C40.0775 39.1753 40.1582 39.2559 40.1582 39.3553C40.1582 39.4547 40.0775 39.5353 39.9782 39.5353Z" fill="#372168"/>
<path d="M28.8071 57.0817C28.7077 57.0817 28.6271 57.0011 28.6271 56.9017L28.6163 44.0083C28.6078 42.3815 29.4306 40.863 30.7979 39.9817C30.8645 39.9385 30.9347 39.8971 31.0049 39.8575C31.8311 39.4012 32.7611 39.1661 33.7049 39.1753H36.6047C36.704 39.1753 36.7847 39.2559 36.7847 39.3553C36.7847 39.4547 36.704 39.5353 36.6047 39.5353H33.6959C32.8151 39.5263 31.947 39.7452 31.1759 40.1707C31.1093 40.2085 31.0445 40.2463 30.9815 40.2877C29.7222 41.1045 28.9669 42.5075 28.9781 44.0083L28.9889 56.9017C28.9889 57.0011 28.9082 57.0817 28.8089 57.0817H28.8071Z" fill="#372168"/>
<path d="M42.631 53.6904C42.5914 53.6907 42.5529 53.6781 42.5212 53.6544L40.975 52.4664C40.9035 52.4037 40.8929 52.2963 40.9511 52.2208C41.0092 52.1456 41.1159 52.1285 41.1946 52.182L42.7408 53.3682C42.8015 53.4153 42.8256 53.4956 42.8007 53.5683C42.7761 53.6412 42.7079 53.6902 42.631 53.6904Z" fill="#372168"/>
<path d="M44.1772 53.3952C44.1374 53.395 44.0989 53.3817 44.0674 53.3574L40.975 50.9832C40.9035 50.9206 40.8929 50.8131 40.9511 50.7377C41.0092 50.6625 41.1159 50.6454 41.1946 50.6988L44.287 53.0712C44.3255 53.1002 44.3507 53.1432 44.3572 53.1909C44.3635 53.2386 44.3505 53.2869 44.3212 53.325C44.2868 53.3697 44.2335 53.3956 44.1772 53.3952Z" fill="#372168"/>
<path d="M44.1773 51.8814C44.1375 51.8812 44.099 51.8679 44.0675 51.8436L43.2161 51.1902C43.1371 51.1295 43.1221 51.0163 43.1828 50.9373C43.2435 50.8583 43.3567 50.8433 43.4357 50.904L44.2871 51.5574C44.3256 51.5864 44.3508 51.6294 44.3573 51.6771C44.3636 51.7248 44.3506 51.773 44.3213 51.8112C44.2869 51.8558 44.2336 51.8817 44.1773 51.8814Z" fill="#372168"/>
<path d="M68.6143 51.12C68.5363 51.12 68.4674 51.0697 68.4433 50.9958C68.3425 50.6961 68.1085 50.4601 67.8097 50.3568C67.7447 50.3395 67.6947 50.2876 67.6801 50.2219C67.6655 50.1564 67.6885 50.088 67.74 50.0448C67.7915 50.0016 67.8628 49.9906 67.9249 50.0166C68.3293 50.1595 68.6445 50.4819 68.7781 50.8896C68.8089 50.9841 68.7572 51.0854 68.6629 51.1164C68.6469 51.1194 68.6305 51.1207 68.6143 51.12Z" fill="#372168"/>
<path d="M59.8753 18.2431C59.7759 18.2544 59.6861 18.1831 59.6746 18.0838C59.663 17.9844 59.7345 17.8945 59.8339 17.8831L60.8887 17.6365C60.9353 17.6257 60.9841 17.6339 61.0246 17.6592C61.0652 17.6845 61.0939 17.7249 61.1047 17.7715C61.1155 17.818 61.1072 17.8669 61.082 17.9074C61.0566 17.948 61.0163 17.9768 60.9697 17.9875L59.9149 18.2341C59.9021 18.2389 59.8888 18.2418 59.8753 18.2431Z" fill="#372168"/>
<path d="M59.0077 17.2781C58.9587 17.2779 58.9119 17.2577 58.8781 17.2223C58.8082 17.1521 58.8082 17.0387 58.8781 16.9685L59.7619 16.1243C59.7957 16.0902 59.8416 16.071 59.8897 16.071C59.9377 16.071 59.9836 16.0902 60.0175 16.1243C60.0873 16.1945 60.0873 16.3079 60.0175 16.3781L59.1337 17.2223C59.1007 17.2569 59.0554 17.2769 59.0077 17.2781Z" fill="#372168"/>
<path d="M57.9778 16.4699H57.94C57.8932 16.4599 57.8522 16.4318 57.8263 16.3916C57.8002 16.3514 57.7913 16.3025 57.8014 16.2557L58.0462 15.1235C58.0676 15.0241 58.1656 14.9608 58.2649 14.9822C58.3643 15.0035 58.4276 15.1015 58.4062 15.2009L58.1578 16.3295C58.1389 16.4132 58.0637 16.472 57.9778 16.4699Z" fill="#372168"/>
<path d="M64.4329 75.0258C64.3336 75.0298 64.2497 74.9524 64.2458 74.853C64.2418 74.7537 64.3192 74.6698 64.4185 74.6658C64.9951 74.6189 65.5659 74.517 66.1231 74.3616C66.2185 74.335 66.3175 74.3906 66.3445 74.4858C66.3579 74.5319 66.3523 74.5814 66.3289 74.6234C66.3057 74.6651 66.2664 74.6961 66.2204 74.709C65.6408 74.8705 65.0471 74.9765 64.4473 75.0258H64.4329Z" fill="#372168"/>
<path d="M68.058 73.9513C67.9757 73.951 67.9043 73.8948 67.8843 73.8151C67.8643 73.7352 67.901 73.652 67.9734 73.6129C70.9348 72.0234 72.7817 68.9335 72.7794 65.5723C72.7794 65.473 72.86 65.3923 72.9594 65.3923C73.0588 65.3923 73.1394 65.473 73.1394 65.5723C73.1435 69.0643 71.2269 72.2755 68.1516 73.9297C68.123 73.9452 68.0906 73.9528 68.058 73.9513Z" fill="#372168"/>
<path d="M23.2074 21.3066C23.1081 21.3201 23.0166 21.2503 23.0031 21.1509C22.9896 21.0516 23.0595 20.9601 23.1588 20.9466C23.7381 20.7861 24.331 20.68 24.93 20.6298C25.0294 20.6214 25.1169 20.6952 25.1253 20.7945C25.1338 20.8939 25.06 20.9814 24.9606 20.9898C24.3841 21.0364 23.8131 21.1383 23.256 21.294C23.2404 21.3 23.224 21.3041 23.2074 21.3066Z" fill="#372168"/>
<path d="M16.4105 30.2689C16.3111 30.2689 16.2305 30.1883 16.2305 30.0889C16.2279 26.5944 18.1482 23.3821 21.2273 21.7297C21.2694 21.7069 21.3191 21.7018 21.365 21.7157C21.4111 21.7295 21.4496 21.761 21.4721 21.8035C21.5185 21.891 21.4856 21.9997 21.3983 22.0465C18.4364 23.6359 16.589 26.7258 16.5905 30.0871C16.591 30.1352 16.5722 30.1814 16.5384 30.2156C16.5046 30.2497 16.4585 30.2689 16.4105 30.2689Z" fill="#372168"/>
<path d="M37.3517 67.3328H24.8669C24.177 67.3328 23.6177 67.892 23.6177 68.582V68.96C23.6177 69.6499 24.177 70.2092 24.8669 70.2092H37.3517C38.0416 70.2092 38.6009 69.6499 38.6009 68.96V68.582C38.6009 67.892 38.0416 67.3328 37.3517 67.3328Z" fill="#FFB07D"/>
<path fill-rule="evenodd" clip-rule="evenodd" d="M24.8582 70.5691H37.352C38.2347 70.5583 38.9465 69.8426 38.9522 68.9599V68.5819C38.9463 67.6963 38.2304 66.9795 37.3448 66.9727H24.8582C23.9719 66.9786 23.255 67.6955 23.249 68.5819V68.9599C23.255 69.8462 23.9719 70.5631 24.8582 70.5691ZM23.9762 68.5783C23.9762 68.0872 24.3744 67.6891 24.8654 67.6891H37.352C37.8423 67.69 38.2394 68.0879 38.2394 68.5783V68.9563C38.2394 69.4466 37.8423 69.8444 37.352 69.8455H24.8654C24.3744 69.8455 23.9762 69.4473 23.9762 68.9563V68.5783Z" fill="#372168"/>
<path d="M35.0494 64.4563H22.5646C21.8747 64.4563 21.3154 65.0156 21.3154 65.7055V66.0835C21.3154 66.7734 21.8747 67.3327 22.5646 67.3327H35.0494C35.7393 67.3327 36.2986 66.7734 36.2986 66.0835V65.7055C36.2986 65.0156 35.7393 64.4563 35.0494 64.4563Z" fill="#FFB07D"/>
<path fill-rule="evenodd" clip-rule="evenodd" d="M22.5648 67.6926H35.0496C35.9359 67.6867 36.6528 66.9697 36.6588 66.0834V65.7036C36.6519 64.818 35.9352 64.1021 35.0496 64.0962H22.5648C21.6792 64.1021 20.9624 64.818 20.9556 65.7036V66.0834C20.9615 66.9697 21.6784 67.6867 22.5648 67.6926ZM21.6756 65.7C21.6766 65.2097 22.0744 64.8126 22.5648 64.8126H35.0496C35.5399 64.8126 35.9377 65.2097 35.9388 65.7V66.0798C35.9388 66.5708 35.5406 66.969 35.0496 66.969H22.5648C22.0737 66.969 21.6756 66.5708 21.6756 66.0798V65.7Z" fill="#372168"/>
<path d="M37.6075 61.5798H25.1227C24.4328 61.5798 23.8735 62.1391 23.8735 62.829V63.207C23.8735 63.8969 24.4328 64.4562 25.1227 64.4562H37.6075C38.2974 64.4562 38.8567 63.8969 38.8567 63.207V62.829C38.8567 62.1391 38.2974 61.5798 37.6075 61.5798Z" fill="#FFB07D"/>
<path fill-rule="evenodd" clip-rule="evenodd" d="M25.1206 64.8162H37.6072C38.4935 64.8103 39.2104 64.0933 39.2164 63.207V62.8272C39.2104 61.9409 38.4935 61.224 37.6072 61.218H25.1206C24.2325 61.2189 23.5132 61.9391 23.5132 62.8272V63.207C23.5132 64.095 24.2325 64.8151 25.1206 64.8162ZM24.2332 62.8254C24.2332 62.3351 24.6303 61.9371 25.1206 61.9362H37.6072C38.0959 61.942 38.4906 62.3367 38.4964 62.8254V63.2052C38.4906 63.6939 38.0959 64.0887 37.6072 64.0944H25.1206C24.6303 64.0933 24.2332 63.6955 24.2332 63.2052V62.8254Z" fill="#372168"/>
<path d="M35.7482 63.3869H34.553C34.4537 63.3869 34.373 63.3062 34.373 63.2069C34.373 63.1075 34.4537 63.0269 34.553 63.0269H35.7482C35.8476 63.0269 35.9282 63.1075 35.9282 63.2069C35.9282 63.3062 35.8476 63.3869 35.7482 63.3869Z" fill="#372168"/>
<path d="M33.6348 63.3869H23.8734C23.774 63.3869 23.6934 63.3062 23.6934 63.2069C23.6934 63.1075 23.774 63.0269 23.8734 63.0269H33.6348C33.7341 63.0269 33.8148 63.1075 33.8148 63.2069C33.8148 63.3062 33.7341 63.3869 33.6348 63.3869Z" fill="#372168"/>
<path d="M36.2845 66.4472H31.3651C31.2657 66.4472 31.1851 66.3665 31.1851 66.2672C31.1851 66.1678 31.2657 66.0872 31.3651 66.0872H36.2845C36.3838 66.0872 36.4645 66.1678 36.4645 66.2672C36.4645 66.3665 36.3838 66.4472 36.2845 66.4472Z" fill="#372168"/>
<path d="M25.803 70.1838C25.7037 70.1838 25.623 70.1031 25.623 70.0038V69.2694C25.623 69.17 25.7037 69.0894 25.803 69.0894C25.9024 69.0894 25.983 69.17 25.983 69.2694V70.0038C25.983 70.1031 25.9024 70.1838 25.803 70.1838Z" fill="#372168"/>
<path d="M27.7542 70.1838C27.6549 70.1838 27.5742 70.1031 27.5742 70.0038V69.2694C27.5742 69.17 27.6549 69.0894 27.7542 69.0894C27.8536 69.0894 27.9342 69.17 27.9342 69.2694V70.0038C27.9342 70.1031 27.8536 70.1838 27.7542 70.1838Z" fill="#372168"/>
<path d="M29.9608 70.1838C29.8614 70.1838 29.7808 70.1031 29.7808 70.0038V69.2694C29.7808 69.17 29.8614 69.0894 29.9608 69.0894C30.0601 69.0894 30.1408 69.17 30.1408 69.2694V70.0038C30.1408 70.1031 30.0601 70.1838 29.9608 70.1838Z" fill="#372168"/>
<path d="M31.9124 70.1838C31.8131 70.1838 31.7324 70.1031 31.7324 70.0038V69.2694C31.7324 69.17 31.8131 69.0894 31.9124 69.0894C32.0118 69.0894 32.0924 69.17 32.0924 69.2694V70.0038C32.0924 70.1031 32.0118 70.1838 31.9124 70.1838Z" fill="#372168"/>
<path d="M34.1029 70.1838C34.0035 70.1838 33.9229 70.1031 33.9229 70.0038V69.2694C33.9229 69.17 34.0035 69.0894 34.1029 69.0894C34.2022 69.0894 34.2829 69.17 34.2829 69.2694V70.0038C34.2829 70.1031 34.2022 70.1838 34.1029 70.1838Z" fill="#372168"/>
<path d="M36.054 70.1838C35.9547 70.1838 35.874 70.1031 35.874 70.0038V69.2694C35.874 69.17 35.9547 69.0894 36.054 69.0894C36.1534 69.0894 36.234 69.17 36.234 69.2694V70.0038C36.234 70.1031 36.1534 70.1838 36.054 70.1838Z" fill="#372168"/>
</svg>
