<svg width="90" height="90" viewBox="0 0 90 90" fill="none" xmlns="http://www.w3.org/2000/svg">
<path d="M60.5431 36.9252C60.5903 40.1467 59.7119 43.3142 58.0124 46.0512C57.5299 46.8306 57.0925 47.637 56.6713 48.4506L46.6687 67.779C46.0783 68.9206 44.9002 69.6375 43.615 69.6375C42.3298 69.6375 41.1517 68.9206 40.5613 67.779L30.5587 48.4596C30.1375 47.6442 29.7001 46.8396 29.2159 46.0602C25.9614 40.797 25.8366 34.1779 28.8907 28.7959C31.9447 23.4139 37.6914 20.1264 43.8787 20.2212C52.9993 20.3526 60.4297 27.8064 60.5431 36.9252Z" fill="white"/>
<path fill-rule="evenodd" clip-rule="evenodd" d="M40.2406 67.9447C40.882 69.2161 42.19 70.0126 43.6138 69.9985C45.0412 70.0155 46.3538 69.2188 46.9978 67.9447L56.9896 48.6164C57.4954 47.639 57.9058 46.9064 58.318 46.2404C60.0539 43.445 60.9511 40.2102 60.9028 36.92C60.7925 29.6287 56.1168 23.1915 49.2172 20.8316C42.3175 18.4716 34.679 20.6969 30.1264 26.3932C25.5737 32.0895 25.0868 40.0305 28.9096 46.2404C29.3236 46.9082 29.734 47.6408 30.238 48.6164L40.2406 67.9447ZM29.1292 29.0707C32.056 23.8176 37.6004 20.5639 43.6138 20.5706L43.8802 20.567C52.8356 20.7345 60.048 27.9677 60.19 36.9236C60.2372 40.0766 59.3775 43.1768 57.7132 45.8552C57.2902 46.5374 56.8726 47.2862 56.3578 48.2798L46.3462 67.6135C45.8177 68.6359 44.7629 69.278 43.612 69.278C42.4611 69.278 41.4063 68.6359 40.8778 67.6135L30.8806 48.2852C30.3658 47.2916 29.9482 46.5445 29.5234 45.8606C26.3533 40.7505 26.2024 34.3238 29.1292 29.0707Z" fill="#372168"/>
<path fill-rule="evenodd" clip-rule="evenodd" d="M50.1212 33.5539C52.5661 36.9231 52.0308 41.602 48.888 44.3321C45.7454 47.062 41.0375 46.9374 38.0434 44.0452C35.0492 41.1531 34.762 36.4522 37.3815 33.2169C40.001 29.9818 44.6587 29.2848 48.1106 31.6117" fill="#BDCBFF"/>
<path d="M43.6142 46.6794C40.0106 46.6801 36.8079 44.3824 35.6541 40.9685C34.5005 37.5545 35.6525 33.7851 38.5177 31.5995C41.383 29.414 45.323 29.2993 48.3104 31.3146C48.4265 31.3821 48.4955 31.5086 48.4892 31.6429C48.4829 31.777 48.4024 31.8965 48.2804 31.9529C48.1583 32.009 48.0152 31.9926 47.909 31.9104C44.6071 29.6827 40.1503 30.348 37.6429 33.4429C35.1357 36.5378 35.4097 41.0358 38.274 43.8035C41.1385 46.5712 45.6432 46.6907 48.6503 44.0787C51.6574 41.4668 52.1693 36.9896 49.8296 33.7662C49.7535 33.6611 49.7391 33.5232 49.792 33.4047C49.8449 33.2861 49.9573 33.2048 50.0863 33.1914C50.2156 33.1779 50.3421 33.2345 50.4182 33.3396C52.2753 35.895 52.5413 39.2763 51.1069 42.0906C49.6727 44.9051 46.7803 46.6767 43.6214 46.6758L43.6142 46.6794Z" fill="#372168"/>
<path d="M54.4662 27.4122C54.4104 27.4121 54.358 27.3861 54.324 27.342C53.4601 26.2169 52.3249 25.3293 51.0246 24.7626C50.9346 24.7225 50.8937 24.6174 50.9328 24.5268C50.9724 24.4361 51.0777 24.3944 51.1686 24.4332C52.5247 25.0233 53.7086 25.9487 54.6084 27.1224C54.6689 27.2011 54.6543 27.3138 54.576 27.3744C54.5445 27.3987 54.5059 27.4121 54.4662 27.4122Z" fill="#372168"/>
<path d="M36.6032 53.82C36.6246 54.8433 36.4569 55.862 36.1082 56.8242C35.9252 57.3255 35.6937 57.8079 35.417 58.2642C35.183 58.653 34.9562 59.0454 34.7474 59.4468L29.9378 68.7438C29.6199 69.3564 28.9872 69.7407 28.2971 69.7407C27.607 69.7407 26.9743 69.3564 26.6564 68.7438L21.8468 59.4468C21.638 59.0454 21.4112 58.653 21.1772 58.2642C20.3973 56.9729 19.9863 55.4924 19.9892 53.9838C19.9424 49.396 23.6238 45.639 28.2116 45.5922C32.7995 45.5454 36.5564 49.2268 36.6032 53.8146V53.82Z" fill="white"/>
<path fill-rule="evenodd" clip-rule="evenodd" d="M26.3356 68.9149C26.7141 69.648 27.4707 70.1079 28.2958 70.1065C29.1218 70.1096 29.8796 69.6493 30.2578 68.9149L35.0674 59.6197C35.2438 59.2777 35.4472 58.9195 35.7262 58.4587C36.014 57.9795 36.255 57.4737 36.4462 56.9485C36.8105 55.9448 36.9856 54.8823 36.9628 53.8147C36.889 50.1737 34.5472 46.967 31.1013 45.7883C27.6555 44.6097 23.8404 45.7104 21.5521 48.5436C19.2637 51.3766 18.9901 55.3379 20.8672 58.4587C21.1462 58.9195 21.346 59.2777 21.526 59.6197L26.3356 68.9149ZM21.3746 50.0748C22.7851 47.5804 25.4302 46.0392 28.2958 46.0423H28.294C28.4032 46.0423 28.5118 46.0441 28.6198 46.0477C32.8177 46.2189 36.1576 49.6268 36.2446 53.8273C36.2779 55.3251 35.8846 56.8014 35.1106 58.0843C35.0922 58.1151 35.0742 58.1455 35.0566 58.1754C34.7968 58.6128 34.5969 58.9497 34.4284 59.2867L29.6188 68.5837C29.3634 69.0771 28.8541 69.3869 28.2985 69.3869C27.7428 69.3869 27.2336 69.0771 26.9782 68.5837L22.1668 59.2867C21.9832 58.9303 21.7726 58.5595 21.4864 58.0843C20.0068 55.6302 19.9641 52.5693 21.3746 50.0748Z" fill="#372168"/>
<path fill-rule="evenodd" clip-rule="evenodd" d="M28.2977 58.4928C30.4767 58.4928 32.2433 56.7262 32.2433 54.5472C32.2433 52.3681 30.4767 50.6016 28.2977 50.6016C26.1186 50.6016 24.3521 52.3681 24.3521 54.5472C24.3521 56.7262 26.1186 58.4928 28.2977 58.4928Z" fill="#FFB07D"/>
<path fill-rule="evenodd" clip-rule="evenodd" d="M24.3158 56.1974C24.9832 57.8061 26.5543 58.8542 28.2961 58.8528C30.6718 58.8488 32.5961 56.9228 32.5981 54.5472C32.5981 52.8053 31.5487 51.2351 29.9393 50.569C28.33 49.9028 26.4778 50.2718 25.2467 51.5039C24.0155 52.736 23.6482 54.5886 24.3158 56.1974ZM24.9809 53.1725C25.5371 51.8328 26.8455 50.9601 28.2961 50.9615C30.2741 50.9655 31.8761 52.5691 31.8781 54.5472C31.8781 55.9978 31.004 57.3053 29.6638 57.8602C28.3235 58.415 26.7811 58.1076 25.7558 57.0812C24.7307 56.055 24.4249 54.5122 24.9809 53.1725Z" fill="#372168"/>
<path d="M33.084 49.7988C33.0282 49.7987 32.9758 49.7727 32.9418 49.7286C32.5174 49.1782 31.9599 48.7446 31.3218 48.4686C31.2595 48.4452 31.2152 48.3893 31.2066 48.3234C31.198 48.2573 31.2266 48.192 31.2809 48.1535C31.3351 48.1148 31.4062 48.1094 31.4658 48.1392C32.1575 48.4402 32.7616 48.9122 33.2208 49.5108C33.2813 49.5895 33.2667 49.7022 33.1884 49.7628C33.1582 49.7855 33.1216 49.7981 33.084 49.7988Z" fill="#372168"/>
<path d="M69.5575 44.8255C70.2712 47.1907 70.2082 49.7222 69.3775 52.0489C69.1282 52.7383 68.8116 53.4014 68.4325 54.0289C68.1409 54.5113 67.8547 54.9973 67.5955 55.4995L60.8905 68.4397C60.4822 69.2296 59.6674 69.7256 58.7782 69.7256C57.889 69.7256 57.0741 69.2296 56.6659 68.4397L49.9663 55.4923C49.7071 54.9901 49.4263 54.5041 49.1275 54.0217C48.7482 53.3946 48.4323 52.7313 48.1843 52.0417C47.7361 50.8094 47.5077 49.5082 47.5093 48.1969C47.5093 40.9015 54.4411 35.2261 62.0767 37.3969C65.681 38.4235 68.5057 41.2286 69.5575 44.8255Z" fill="white"/>
<path fill-rule="evenodd" clip-rule="evenodd" d="M56.3453 68.6069C56.8148 69.5175 57.7543 70.0889 58.7789 70.0865C59.8054 70.0914 60.7479 69.5197 61.2179 68.6069L67.9103 55.6505C68.1713 55.1537 68.4629 54.6641 68.7365 54.2105C69.1268 53.5643 69.4535 52.8819 69.7121 52.1729C70.5686 49.7741 70.6355 47.1641 69.9029 44.7245C68.8056 41.0167 65.8918 38.1252 62.1755 37.0565C58.5125 36.0161 54.7217 36.6947 51.7751 38.9195C47.0145 42.5084 45.7381 49.1158 48.8195 54.2195C49.0949 54.6677 49.3865 55.1591 49.6457 55.6595L56.3453 68.6069ZM49.2774 42.834C51.2168 39.4073 54.8524 37.292 58.7897 37.2995C59.8681 37.3011 60.9409 37.4525 61.9775 37.7495C65.4557 38.7498 68.1828 41.4559 69.2099 44.9261C69.8982 47.219 69.8352 49.6718 69.0299 51.9263C68.7876 52.5916 68.4813 53.2317 68.1155 53.8379C67.8347 54.3023 67.5377 54.8045 67.2659 55.3283L60.5663 68.2757C60.2195 68.9462 59.5275 69.3672 58.7726 69.3672C58.0177 69.3672 57.3258 68.9462 56.9789 68.2757L50.2793 55.3283C50.0111 54.8081 49.7123 54.3041 49.4297 53.8379C47.3964 50.4663 47.3383 46.2605 49.2774 42.834Z" fill="#372168"/>
<path fill-rule="evenodd" clip-rule="evenodd" d="M58.7791 54.3131C61.7346 54.3131 64.1305 51.9172 64.1305 48.9618C64.1305 46.0063 61.7346 43.6104 58.7791 43.6104C55.8237 43.6104 53.4277 46.0063 53.4277 48.9618C53.4277 51.9172 55.8237 54.3131 58.7791 54.3131Z" fill="#A1D0B5"/>
<path fill-rule="evenodd" clip-rule="evenodd" d="M53.5008 51.1467C54.3855 53.2809 56.4687 54.672 58.7788 54.6713C61.9311 54.6673 64.4853 52.1122 64.4884 48.9599C64.4884 46.6496 63.0966 44.567 60.9622 43.683C58.8278 42.7992 56.3711 43.2881 54.7378 44.9219C53.1045 46.5558 52.6163 49.0126 53.5008 51.1467ZM54.1659 47.0508C54.9389 45.1854 56.7595 43.9695 58.7788 43.9703C61.5331 43.9733 63.7653 46.2053 63.7684 48.9599C63.7691 50.9791 62.5532 52.7998 60.6879 53.5727C58.8227 54.3458 56.6753 53.9189 55.2476 52.4911C53.8198 51.0633 53.3928 48.9159 54.1659 47.0508Z" fill="#372168"/>
<path d="M65.7178 41.9995C65.6662 41.9995 65.617 41.9772 65.5828 41.9383C64.8826 41.1431 64.0372 40.4888 63.0916 40.0105C63.0108 39.9619 62.9813 39.8591 63.0238 39.7751C63.0662 39.691 63.1665 39.6539 63.2536 39.6901C64.2407 40.1878 65.1231 40.8704 65.8528 41.7007C65.9183 41.7752 65.9111 41.8888 65.8366 41.9545C65.8039 41.9835 65.7616 41.9995 65.7178 41.9995Z" fill="#372168"/>
<path d="M43.3763 56.7792C43.3372 56.7786 43.2993 56.7653 43.2683 56.7414L41.7797 55.6002C41.7082 55.5375 41.6976 55.4301 41.7558 55.3546C41.8139 55.2794 41.9206 55.2623 41.9993 55.3158L43.4861 56.457C43.5468 56.5041 43.5709 56.5846 43.546 56.6573C43.5214 56.73 43.4532 56.779 43.3763 56.7792Z" fill="#372168"/>
<path d="M44.8651 56.4948C44.8253 56.4946 44.7868 56.4813 44.7553 56.457L41.7781 54.1746C41.6991 54.1139 41.6841 54.0007 41.7448 53.9217C41.8055 53.8426 41.9187 53.8277 41.9977 53.8884L44.9713 56.1708C45.0332 56.2172 45.0586 56.2982 45.0341 56.3716C45.0096 56.4453 44.9407 56.4948 44.8633 56.4948H44.8651Z" fill="#372168"/>
<path d="M44.8651 55.0385C44.8254 55.0383 44.7868 55.025 44.7553 55.0007L43.9363 54.3725C43.8809 54.3348 43.851 54.2697 43.8586 54.2031C43.8661 54.1367 43.9101 54.0798 43.9723 54.0557C44.0348 54.0314 44.1055 54.044 44.1559 54.0881L44.9731 54.7163C45.0336 54.7632 45.0577 54.8432 45.0334 54.9157C45.0091 54.9882 44.9416 55.0374 44.8651 55.0385Z" fill="#372168"/>
<path d="M58.9121 24.1866C58.8268 24.1889 58.7517 24.131 58.7321 24.048C58.7208 24.0012 58.7287 23.9519 58.7541 23.9108C58.7794 23.87 58.8201 23.8408 58.8671 23.8302L60.0407 23.5566C60.1377 23.5337 60.2347 23.5939 60.2576 23.6907C60.2805 23.7876 60.2205 23.8848 60.1235 23.9076L58.9481 24.1812C58.9364 24.1844 58.9243 24.1862 58.9121 24.1866Z" fill="#372168"/>
<path d="M57.9476 23.112C57.8986 23.1118 57.8518 23.0916 57.818 23.0562C57.7482 22.986 57.7482 22.8726 57.818 22.8024L58.8026 21.8628C58.8748 21.7936 58.9891 21.7962 59.0582 21.8682C59.1273 21.9402 59.125 22.0546 59.0528 22.1238L58.0664 23.0634C58.0342 23.0936 57.9919 23.1109 57.9476 23.112Z" fill="#372168"/>
<path d="M56.8025 22.2119C56.7899 22.2137 56.7773 22.2137 56.7647 22.2119C56.7179 22.202 56.6769 22.1738 56.651 22.1336C56.6249 22.0935 56.6161 22.0445 56.6261 21.9977L56.8997 20.7377C56.9132 20.6735 56.96 20.6213 57.0225 20.6007C57.0849 20.5802 57.1535 20.5946 57.2025 20.6385C57.2514 20.6825 57.2732 20.7491 57.2597 20.8133L56.9879 22.0733C56.968 22.1585 56.8898 22.2168 56.8025 22.2119Z" fill="#372168"/>
</svg>
