<svg width="90" height="90" viewBox="0 0 90 90" fill="none" xmlns="http://www.w3.org/2000/svg">
<path d="M64.3301 43.3081C63.9879 43.6301 63.8497 44.1138 63.9701 44.5681L64.4975 46.5625C64.7601 47.5381 64.3116 48.5654 63.4175 49.0357L61.5095 50.0401C61.1383 50.235 60.8862 50.5995 60.8345 51.0157L60.5231 53.4889C60.3892 54.5741 59.4654 55.3879 58.3721 55.3843H56.3921C55.9174 55.3841 55.4815 55.6467 55.2599 56.0665L54.2411 57.9817C53.7524 58.9046 52.6731 59.3457 51.6779 59.0293L49.5575 58.3597C49.1116 58.2202 48.6253 58.3332 48.2867 58.6549L46.9133 59.9797C46.1083 60.7451 44.8554 60.7793 44.0099 60.0589L43.9847 60.0355L42.4529 58.7197C42.1055 58.4211 41.6253 58.3304 41.1929 58.4821L39.3083 59.1337C38.3165 59.4797 37.2196 59.0619 36.7091 58.1437L35.7335 56.4013C35.5089 55.9997 35.0866 55.749 34.6265 55.7443L32.4395 55.7209C31.377 55.7123 30.4784 54.9321 30.3209 53.8813L30.2975 53.7283L29.9735 51.6205C29.9019 51.1649 29.5912 50.783 29.1599 50.6197L27.1799 49.8817C26.1859 49.5147 25.6049 48.4808 25.8083 47.4409L26.1953 45.4339C26.2689 45.0584 26.1697 44.6698 25.9253 44.3755L24.3053 42.3955C23.7264 41.6969 23.646 40.7111 24.1037 39.9277L25.2989 37.8721C25.5039 37.5197 25.5293 37.0907 25.3673 36.7165L24.5465 34.8301C24.1588 33.9204 24.4347 32.8636 25.2179 32.2597L27.1115 30.7927C27.4468 30.5321 27.6315 30.1222 27.6047 29.6983L27.4895 27.8533C27.4245 26.8467 28.0648 25.9291 29.0321 25.6429L30.9599 25.0597C31.3687 24.9371 31.6898 24.6194 31.8167 24.2119L32.4899 22.0519C32.806 21.021 33.8338 20.3811 34.8983 20.5525L37.2941 20.9197C37.7751 20.9951 38.2573 20.7923 38.5397 20.3959L39.4649 19.0963C40.0942 18.2058 41.2885 17.9241 42.2495 18.4393L44.1485 19.4491C44.5269 19.6516 44.9815 19.6516 45.3599 19.4491L47.4047 18.3493C48.2772 17.8789 49.3573 18.0597 50.0291 18.7885L51.4691 20.3509C51.7486 20.6556 52.1583 20.8065 52.5689 20.7559L54.6389 20.5057C55.6239 20.3847 56.5647 20.9505 56.9195 21.8773L57.6125 23.6773C57.7617 24.06 58.0848 24.3483 58.4819 24.4531L60.8453 25.0777C61.7988 25.3279 62.464 26.189 62.4653 27.1747V29.4121C62.4655 29.8207 62.6599 30.205 62.9891 30.4471L64.5281 31.5757C65.3163 32.1515 65.6203 33.1845 65.2697 34.0957L64.5083 36.1027C64.3566 36.5016 64.414 36.9501 64.6613 37.2979L65.9933 39.1843C66.6143 40.0631 66.4971 41.2646 65.7179 42.0067L64.3301 43.3081Z" fill="white"/>
<path fill-rule="evenodd" clip-rule="evenodd" d="M43.7778 60.3235C44.2332 60.7144 44.8139 60.929 45.414 60.9283H45.4158C46.0667 60.9299 46.6931 60.6797 47.1636 60.2299L48.537 58.9213C48.7804 58.6892 49.1306 58.6079 49.4514 58.7089L51.5682 59.3731C52.7297 59.7415 53.9885 59.2262 54.558 58.1491L55.584 56.2231C55.744 55.9214 56.0579 55.7329 56.3994 55.7335H58.3794C59.654 55.7367 60.7302 54.7879 60.8868 53.5231L61.2 51.0481C61.2369 50.7494 61.4178 50.4877 61.6842 50.3479L63.5922 49.3435C64.633 48.7952 65.1559 47.5998 64.8522 46.4635L64.323 44.4673C64.2375 44.1431 64.3354 43.798 64.5786 43.5673L65.9556 42.2569C66.8691 41.3934 67.0064 39.9889 66.2778 38.9647L64.944 37.0783C64.7656 36.8286 64.7244 36.5062 64.8342 36.2197L65.6028 34.2235C66.0044 33.1615 65.6507 31.9618 64.737 31.2877L63.198 30.1573C62.9617 29.9834 62.822 29.7074 62.8218 29.4139V27.1765C62.8202 26.0293 62.0478 25.0264 60.939 24.7321L58.5774 24.1075C58.2908 24.0313 58.0577 23.8234 57.9492 23.5477L57.258 21.7477C56.8409 20.67 55.7444 20.0143 54.5976 20.1565L52.524 20.4049C52.229 20.4407 51.9349 20.3321 51.7338 20.1133L50.2938 18.5527C49.5124 17.6996 48.2506 17.488 47.2338 18.0397L45.1962 19.1377C44.9242 19.2842 44.597 19.2842 44.325 19.1377L42.426 18.1279C41.306 17.5387 39.9231 17.866 39.186 18.8947L38.2608 20.1943C38.0567 20.4805 37.7078 20.6263 37.3608 20.5705L34.9632 20.1925C33.7241 20.0022 32.5316 20.7445 32.1552 21.9403L31.4802 24.1003C31.3909 24.3937 31.1603 24.623 30.8664 24.7105L28.9296 25.2901C27.8008 25.624 27.0535 26.6948 27.1296 27.8695L27.2466 29.7127C27.2641 30.0188 27.1294 30.3139 26.8866 30.5011L24.9948 31.9681C24.0786 32.6737 23.7602 33.9122 24.2226 34.9723L25.0416 36.8587C25.1588 37.1278 25.1408 37.4366 24.993 37.6903L23.7978 39.7459C23.269 40.661 23.3622 41.8081 24.0318 42.6259L25.6518 44.6059C25.8273 44.8179 25.8986 45.0971 25.8462 45.3673L25.4592 47.3743C25.2227 48.5864 25.8995 49.7913 27.0576 50.2201L29.0376 50.9581C29.3497 51.0743 29.5751 51.3494 29.628 51.6781L29.9538 53.7841L29.9754 53.9371C30.1595 55.1627 31.2075 56.0726 32.4468 56.0827L34.632 56.1061C34.9628 56.11 35.2665 56.2897 35.4294 56.5777L36.405 58.3219C37.001 59.3929 38.281 59.8798 39.438 59.4757L41.319 58.8241C41.6282 58.718 41.9702 58.7832 42.219 58.9951L43.7472 60.2983L43.7778 60.3235ZM42.696 58.4425C42.3949 58.186 42.0116 58.0459 41.616 58.0483V58.0537C41.4335 58.0531 41.2522 58.083 41.0796 58.1419L39.195 58.7935C38.3699 59.0782 37.4594 58.7299 37.035 57.9673L36.0594 56.2249C35.7716 55.7115 35.2314 55.3909 34.6428 55.3843L32.4576 55.3609C31.5718 55.3547 30.8219 54.7051 30.69 53.8291L30.3408 51.5665C30.2512 50.978 29.8494 50.4847 29.2914 50.2777L27.3114 49.5397C26.4857 49.2365 26.0001 48.3808 26.163 47.5165L26.5482 45.5113C26.6434 45.0301 26.5172 44.5317 26.2044 44.1541L24.5844 42.1741C24.1056 41.5894 24.039 40.7692 24.417 40.1149L25.6122 38.0593C25.8732 37.6075 25.9052 37.0588 25.6986 36.5797L24.8796 34.6663C24.5479 33.9081 24.7757 33.0212 25.4322 32.5171L27.324 31.0501C27.7535 30.7156 27.9905 30.1911 27.9576 29.6479L27.8424 27.8047C27.7868 26.9648 28.3205 26.1985 29.1276 25.9597L31.0644 25.3801C31.5868 25.2247 31.9975 24.8199 32.1606 24.3001L32.8338 22.1401C33.1031 21.2856 33.9552 20.7553 34.8408 20.8909L37.2384 21.2689C37.8544 21.3688 38.4732 21.1088 38.8332 20.5993L39.7584 19.2997C40.288 18.5636 41.2803 18.3329 42.0804 18.7597L43.9668 19.7659C44.4515 20.0251 45.0337 20.0251 45.5184 19.7659L47.5632 18.6661C48.2888 18.2688 49.1918 18.4173 49.752 19.0261L51.192 20.5867C51.5497 20.976 52.0731 21.169 52.5978 21.1051L54.6696 20.8567C55.4911 20.7548 56.2763 21.2264 56.5722 21.9997L57.2652 23.7997C57.4567 24.2894 57.8696 24.659 58.3776 24.7951L60.741 25.4197C61.5339 25.6301 62.0863 26.3472 62.0874 27.1675V29.4139C62.0881 29.9371 62.3372 30.4287 62.7588 30.7387L64.296 31.8691C64.9496 32.3507 65.2027 33.2086 64.9152 33.9679L64.1538 35.9749C63.959 36.4853 64.0319 37.0594 64.3482 37.5049L65.682 39.3913C66.2042 40.1235 66.1057 41.1286 65.4516 41.7457L64.0746 43.0561C63.6392 43.469 63.4644 44.0871 63.6192 44.6671L64.1466 46.6615C64.3664 47.4749 63.9925 48.332 63.2466 48.7243L61.3386 49.7287C60.8632 49.9783 60.5405 50.4451 60.4746 50.9779L60.1614 53.4511C60.1196 53.7931 59.9796 54.1158 59.7582 54.3799C59.4155 54.7935 58.9059 55.0325 58.3686 55.0315H56.3886C55.7807 55.0313 55.2224 55.3673 54.9378 55.9045L53.919 57.8197C53.5084 58.5832 52.6118 58.9456 51.786 58.6819L49.6692 58.0159C49.1002 57.8391 48.4803 57.9845 48.0492 58.3957L46.674 59.7043C46.0058 60.3456 44.96 60.3751 44.2566 59.7727L42.696 58.4425Z" fill="#372168"/>
<path fill-rule="evenodd" clip-rule="evenodd" d="M44.9857 53.0136C52.5916 53.0136 58.7575 46.8477 58.7575 39.2418C58.7575 31.6359 52.5916 25.47 44.9857 25.47C37.3798 25.47 31.2139 31.6359 31.2139 39.2418C31.2139 46.8477 37.3798 53.0136 44.9857 53.0136Z" fill="#FF7D7D"/>
<path fill-rule="evenodd" clip-rule="evenodd" d="M65.9231 63.6931L57.8879 63.7345C57.5716 63.7361 57.2894 63.9332 57.1787 64.2295L54.3473 71.7481C54.3177 71.8284 54.2459 71.8857 54.161 71.8963C54.0762 71.9067 53.9925 71.8691 53.9441 71.7985L46.0601 60.4711C46.3794 60.3725 46.6713 60.2013 46.9133 59.9707L48.2867 58.6603C48.6252 58.3387 49.1116 58.2256 49.5575 58.3651L51.6779 59.0293C52.6736 59.3454 53.7529 58.9035 54.2411 57.9799L55.2599 56.0647C55.4816 55.645 55.9174 55.3823 56.3921 55.3825H58.3721C59.0163 55.3838 59.6276 55.0972 60.0389 54.6013L66.1139 63.3313C66.163 63.4021 66.1686 63.494 66.1285 63.5702C66.0883 63.6463 66.0091 63.6937 65.9231 63.6931Z" fill="#FFB07D"/>
<path fill-rule="evenodd" clip-rule="evenodd" d="M53.6471 72.0036C53.7571 72.1626 53.938 72.2574 54.1313 72.2574L54.2051 72.2628C54.4232 72.2364 54.6086 72.0908 54.6857 71.8848L57.5153 64.3644C57.5745 64.2087 57.723 64.1051 57.8897 64.1034L65.9249 64.062C66.1438 64.0604 66.3437 63.9378 66.4445 63.7434C66.5453 63.549 66.5302 63.3149 66.4055 63.135L60.3305 54.405C60.2664 54.3127 60.1629 54.2555 60.0506 54.2506C59.9383 54.2456 59.8301 54.2934 59.7581 54.3798C59.4154 54.7935 58.9058 55.0325 58.3685 55.0314H56.3885C55.7804 55.0313 55.2223 55.3673 54.9377 55.9044L53.9189 57.8196C53.5094 58.5895 52.6067 58.9551 51.7769 58.6872L49.6601 58.0212C49.0911 57.8445 48.4712 57.9899 48.0401 58.401L46.6649 59.7096C46.4635 59.9021 46.2199 60.045 45.9539 60.1272C45.8443 60.1613 45.7577 60.2455 45.7202 60.3539C45.683 60.4622 45.6995 60.5821 45.7649 60.6762L53.6471 72.0036ZM54.0989 71.3916L46.6091 60.6294C46.8112 60.522 46.9977 60.3875 47.1635 60.2298L48.5369 58.9212C48.7802 58.6892 49.1305 58.6079 49.4513 58.7088L51.5681 59.373C52.7294 59.7415 53.9882 59.2262 54.5579 58.149L55.5713 56.2392C55.7313 55.9376 56.0452 55.7491 56.3867 55.7496H58.3667C58.9583 55.7507 59.5315 55.5443 59.9867 55.1664L65.6765 63.342L57.8861 63.3816C57.4233 63.3849 57.0097 63.6704 56.8421 64.1016L54.0989 71.3916Z" fill="#372168"/>
<path fill-rule="evenodd" clip-rule="evenodd" d="M43.9848 60.0263L35.793 71.7983C35.7442 71.8686 35.6603 71.9061 35.5752 71.8955C35.4902 71.885 35.4181 71.8281 35.388 71.7479L32.5566 64.2293C32.4459 63.933 32.1637 63.7359 31.8474 63.7343L23.8104 63.6929C23.7269 63.6891 23.652 63.6405 23.6147 63.5658C23.5773 63.4911 23.5832 63.4018 23.6304 63.3329L30.312 53.7317L30.3354 53.8847C30.4929 54.9355 31.3915 55.7156 32.454 55.7243L34.641 55.7477C35.1011 55.7524 35.5234 56.0031 35.748 56.4047L36.7236 58.1471C37.2341 59.0653 38.331 59.483 39.3228 59.1371L41.2074 58.4855C41.6398 58.3337 42.12 58.4245 42.4674 58.7231L43.9848 60.0263Z" fill="#FFB07D"/>
<path fill-rule="evenodd" clip-rule="evenodd" d="M35.5286 72.2574H35.6024C35.7963 72.2577 35.9779 72.1629 36.0884 72.0036L44.2712 60.2334C44.3778 60.0813 44.3513 59.8732 44.21 59.7528L42.6782 58.4478C42.2345 58.071 41.6252 57.9555 41.0744 58.1436L39.1898 58.7952C38.3647 59.0799 37.4543 58.7316 37.0298 57.969L36.0542 56.2266C35.7664 55.7132 35.2262 55.3926 34.6376 55.386L32.4524 55.3626C31.5665 55.3565 30.8168 54.7068 30.6848 53.8308L30.6614 53.6778C30.6398 53.5318 30.5313 53.4137 30.3877 53.3799C30.2438 53.3462 30.0941 53.4036 30.0098 53.5248L23.3282 63.126C23.2021 63.3056 23.1862 63.5405 23.2872 63.7353C23.3883 63.9302 23.5894 64.0526 23.8088 64.053L31.8458 64.0944C32.0125 64.096 32.161 64.1997 32.2202 64.3554L35.0498 71.8776C35.1267 72.0831 35.311 72.2293 35.5286 72.2574ZM31.8494 63.3798L24.059 63.3402L30.161 54.5742C30.5594 55.4834 31.4545 56.0739 32.447 56.0826L34.6322 56.106C34.9631 56.1099 35.2667 56.2896 35.4296 56.5776L36.4052 58.3218C37.0012 59.3928 38.2812 59.8797 39.4382 59.4756L41.3192 58.8222C41.6283 58.7161 41.9705 58.7811 42.2192 58.9932L43.5026 60.0876L35.6384 71.3898L32.8952 64.0998C32.7262 63.6688 32.3124 63.3839 31.8494 63.3798Z" fill="#372168"/>
<path d="M65.4192 24.9552C65.3549 24.9617 65.2921 24.9333 65.2543 24.8809C65.2165 24.8283 65.2096 24.7598 65.2363 24.7009C65.2629 24.6419 65.3189 24.6017 65.3832 24.5952L66.3606 24.4026C66.4248 24.3904 66.4909 24.4134 66.5335 24.4629C66.5762 24.5126 66.5893 24.5812 66.5677 24.6429C66.5461 24.7049 66.4932 24.7504 66.429 24.7626L65.4534 24.9552C65.442 24.9569 65.4305 24.9569 65.4192 24.9552Z" fill="#372168"/>
<path d="M64.6544 24.0427C64.6027 24.0427 64.5536 24.0204 64.5194 23.9815C64.4539 23.907 64.4611 23.7934 64.5356 23.7277L65.3744 22.9825C65.4486 22.9167 65.562 22.923 65.6282 22.9969C65.6602 23.0329 65.6766 23.0801 65.6736 23.1282C65.6705 23.1762 65.6484 23.221 65.612 23.2525L64.7732 23.9977C64.7404 24.0267 64.6981 24.0427 64.6544 24.0427Z" fill="#372168"/>
<path d="M63.7381 23.2596H63.6931C63.5975 23.2349 63.5396 23.1377 63.5635 23.0418L63.8245 22.0104C63.8364 21.9641 63.8662 21.9243 63.9075 21.9C63.9485 21.8757 63.9978 21.8687 64.0441 21.8808C64.1397 21.9054 64.1976 22.0026 64.1737 22.0986L63.9181 23.1318C63.8943 23.2104 63.8202 23.2632 63.7381 23.2596Z" fill="#372168"/>
<path fill-rule="evenodd" clip-rule="evenodd" d="M40.3236 36.2196C40.3236 35.4996 40.5149 34.9313 40.8978 34.515C41.294 34.0877 41.8583 33.8565 42.4404 33.8832C42.9867 33.8531 43.5182 34.0659 43.893 34.4646C44.2409 34.851 44.415 35.391 44.415 36.0846C44.4414 36.6959 44.2357 37.2945 43.839 37.7604C43.4504 38.1911 42.8904 38.4266 42.3108 38.403C41.7663 38.4246 41.24 38.206 40.8708 37.8054C40.4933 37.3656 40.2977 36.7985 40.3236 36.2196ZM41.193 36.1638C41.1678 36.5628 41.2796 36.9583 41.5098 37.2852C41.7168 37.5482 42.0375 37.6956 42.372 37.6812C42.7125 37.6979 43.0392 37.544 43.2432 37.2708C43.4678 36.9302 43.5758 36.5259 43.551 36.1188C43.5753 35.7206 43.4698 35.3252 43.2504 34.992C43.0499 34.7277 42.7322 34.5789 42.4008 34.5942C42.0561 34.5807 41.7263 34.7358 41.517 35.01C41.2828 35.3468 41.1687 35.7525 41.193 36.162V36.1638ZM42.7464 42.6006L47.853 34.5996H47.8494C47.9259 34.4824 47.9322 34.3328 47.8658 34.2095C47.7993 34.0864 47.6708 34.0095 47.5308 34.0092H47.493C47.3618 34.0097 47.2401 34.0778 47.1708 34.1892L42.0444 42.2226C41.9695 42.3399 41.9645 42.4886 42.0312 42.6106C42.0978 42.7327 42.2256 42.8088 42.3648 42.8094C42.5192 42.8094 42.663 42.7305 42.7464 42.6006ZM45.558 40.7034C45.558 39.9834 45.7488 39.4122 46.1304 38.9898C46.5224 38.559 47.0856 38.3248 47.6676 38.3508C48.2135 38.3218 48.7443 38.5351 49.1184 38.934C49.4676 39.3228 49.6422 39.8712 49.6422 40.5792C49.6685 41.1886 49.4604 41.7852 49.0608 42.246C48.6716 42.6717 48.1142 42.9035 47.538 42.8796C46.9919 42.9006 46.4645 42.6785 46.098 42.273C45.7283 41.8356 45.5357 41.2756 45.558 40.7034ZM46.737 41.76C46.5082 41.4372 46.3964 41.0461 46.4202 40.6512H46.422C46.3979 40.2424 46.5086 39.8372 46.737 39.4974C46.9479 39.2212 47.2809 39.0665 47.628 39.0834C47.9556 39.0693 48.2699 39.214 48.4722 39.4722C48.6977 39.8014 48.8063 40.197 48.78 40.5954C48.8045 41.002 48.6965 41.4055 48.4722 41.7456C48.2682 42.0201 47.9408 42.1747 47.5992 42.1578C47.2644 42.172 46.9434 42.0238 46.737 41.76Z" fill="white"/>
<path d="M44.9837 53.3591C38.0654 53.3566 32.167 48.3434 31.0495 41.516C29.9321 34.6885 33.9245 28.0564 40.481 25.8485C47.0377 23.6406 54.2285 26.5067 57.4685 32.6195C57.5614 32.7956 57.4942 33.0136 57.3182 33.1064C57.1422 33.1993 56.9242 33.1322 56.8313 32.9561C53.7036 27.0491 46.7025 24.3482 40.418 26.6243C34.1333 28.9004 30.4854 35.4581 31.8658 41.9981C33.2461 48.538 39.2331 53.0621 45.9013 52.6044C52.5698 52.1467 57.8821 46.8467 58.3559 40.1795C58.3649 40.0508 58.4418 39.9369 58.5577 39.8804C58.6736 39.8239 58.8108 39.8334 58.9177 39.9056C59.0246 39.9778 59.0849 40.1012 59.0759 40.2299C58.5354 47.6186 52.392 53.3422 44.9837 53.3591Z" fill="#372168"/>
<path d="M58.7215 38.7125C58.5315 38.7128 58.374 38.5654 58.3615 38.3759C58.3162 37.6487 58.212 36.9263 58.0501 36.2159C58.0059 36.022 58.1272 35.829 58.321 35.7848C58.5149 35.7405 58.7079 35.8618 58.7521 36.0557C58.9224 36.8016 59.0326 37.5601 59.0815 38.3237C59.088 38.4192 59.056 38.5134 58.9928 38.5852C58.9298 38.6572 58.8405 38.7011 58.7449 38.7071L58.7215 38.7125Z" fill="#372168"/>
<path d="M38.1671 25.0704C38.0829 25.0692 38.0107 25.0098 37.9936 24.9273C37.9763 24.8449 38.0184 24.7616 38.0951 24.7266C38.5604 24.5187 39.0362 24.3355 39.5207 24.1777C39.5663 24.1629 39.6159 24.167 39.6584 24.189C39.7009 24.211 39.7331 24.2489 39.7475 24.2947C39.7783 24.3892 39.7266 24.4905 39.6323 24.5215C39.1589 24.6759 38.6945 24.8561 38.2409 25.0614C38.2172 25.0695 38.1921 25.0726 38.1671 25.0704Z" fill="#372168"/>
<path d="M31.2118 31.6151C31.1832 31.6146 31.1549 31.6077 31.129 31.5953C31.041 31.549 31.0072 31.4403 31.0534 31.3523C32.3755 28.8085 34.4144 26.7083 36.9178 25.3115C37.0048 25.2618 37.1156 25.2921 37.1653 25.379C37.215 25.4659 37.1848 25.5768 37.0978 25.6265C34.6541 26.9887 32.663 29.0368 31.3702 31.5179C31.3394 31.5771 31.2786 31.6146 31.2118 31.6151Z" fill="#372168"/>
<path d="M53.7067 52.6931C53.6264 52.6926 53.5564 52.6391 53.5346 52.5619C53.5128 52.4847 53.5449 52.4025 53.6131 52.3601C55.8397 51.0183 57.6595 49.0964 58.8781 46.8C58.9247 46.7119 59.034 46.6784 59.122 46.7252C59.21 46.772 59.2433 46.8811 59.1967 46.9692C57.9457 49.3225 56.0793 51.292 53.7967 52.6679C53.7693 52.6841 53.7384 52.6928 53.7067 52.6931Z" fill="#372168"/>
<path d="M35.6975 63.486C35.6578 63.4858 35.6192 63.4725 35.5877 63.4482L34.2737 62.4384C34.2183 62.4008 34.1884 62.3356 34.196 62.269C34.2035 62.2026 34.2473 62.1457 34.3097 62.1216C34.3722 62.0973 34.4429 62.1099 34.4933 62.154L35.8073 63.162C35.8459 63.191 35.8711 63.234 35.8775 63.2817C35.8838 63.3294 35.8709 63.3776 35.8415 63.4158C35.8072 63.4604 35.7539 63.4863 35.6975 63.486Z" fill="#372168"/>
<path d="M37.0135 63.234C36.9737 63.2338 36.9352 63.2205 36.9037 63.1962L34.2739 61.1784C34.2354 61.1494 34.2102 61.1064 34.2037 61.0587C34.1974 61.011 34.2104 60.9627 34.2397 60.9246C34.2689 60.8864 34.3122 60.8616 34.3598 60.8555C34.4075 60.8493 34.4557 60.8627 34.4935 60.8922L37.1233 62.91C37.1856 62.9566 37.2108 63.0382 37.1858 63.1118C37.1607 63.1854 37.0913 63.2347 37.0135 63.234Z" fill="#372168"/>
<path d="M37.0132 61.9469C36.9734 61.9467 36.9347 61.9334 36.9034 61.9091L36.1834 61.3529C36.1251 61.3167 36.0923 61.2507 36.099 61.1824C36.1057 61.1142 36.1505 61.0555 36.2146 61.0314C36.2788 61.0071 36.3512 61.0215 36.4012 61.0685L37.1212 61.6229C37.1835 61.6695 37.2087 61.7511 37.1837 61.8247C37.1587 61.8983 37.0892 61.9476 37.0114 61.9469H37.0132Z" fill="#372168"/>
</svg>
