<svg width="194" height="505" viewBox="0 0 194 505" fill="none" xmlns="http://www.w3.org/2000/svg">
<g opacity="0.3">
<path fill-rule="evenodd" clip-rule="evenodd" d="M79.2662 492.022H179.051C180.045 492.023 180.998 491.631 181.702 490.931C182.407 490.231 182.803 489.279 182.805 488.287V379.412C182.805 378.767 182.282 378.245 181.637 378.245H79.2662C78.6212 378.245 78.0977 378.767 78.0977 379.412V490.855C78.0977 491.499 78.6212 492.022 79.2662 492.022ZM179.051 489.687H80.4347V380.579H180.468V488.287C180.46 489.063 179.827 489.687 179.051 489.687Z" fill="#D8D3DA"/>
<path fill-rule="evenodd" clip-rule="evenodd" d="M-27.8486 492.022H67.4019C68.0469 492.022 68.5704 491.499 68.5704 490.855V379.412C68.5704 378.767 68.0469 378.245 67.4019 378.245H-27.8486C-28.4936 378.245 -29.0171 378.767 -29.0171 379.412V490.855C-29.0171 491.499 -28.4936 492.022 -27.8486 492.022ZM66.2334 489.687H-26.6878L-26.68 380.579H66.2334V489.687Z" fill="#D8D3DA"/>
<path fill-rule="evenodd" clip-rule="evenodd" d="M79.2662 368.768H181.637C181.949 368.768 182.249 368.642 182.469 368.421C182.689 368.198 182.809 367.897 182.805 367.585V258.01C182.805 257.366 182.282 256.843 181.637 256.843H79.2662C78.6212 256.843 78.0977 257.366 78.0977 258.01V367.6C78.0977 368.245 78.6212 368.768 79.2662 368.768ZM180.468 366.433H80.4347V259.177H180.468V366.433Z" fill="#D8D3DA"/>
<path fill-rule="evenodd" clip-rule="evenodd" d="M-27.8486 368.768H67.4019C67.7143 368.768 68.0143 368.642 68.234 368.421C68.4536 368.198 68.5744 367.897 68.5705 367.585V258.01C68.5705 257.366 68.047 256.843 67.4019 256.843H-27.8486C-28.4936 256.843 -29.0171 257.366 -29.0171 258.01V367.6C-29.0171 368.245 -28.4936 368.768 -27.8486 368.768ZM66.2334 366.433H-26.6878L-26.68 259.177H66.2334V366.433Z" fill="#D8D3DA"/>
<path fill-rule="evenodd" clip-rule="evenodd" d="M79.2662 247.381H181.637C182.282 247.381 182.805 246.859 182.805 246.214V136.654C182.805 136.01 182.282 135.487 181.637 135.487H79.2662C78.6212 135.487 78.0977 136.01 78.0977 136.654V246.214C78.0977 246.859 78.6212 247.381 79.2662 247.381ZM180.468 245.047H80.4347V137.822H180.468V245.047Z" fill="#D8D3DA"/>
<path fill-rule="evenodd" clip-rule="evenodd" d="M-27.8486 247.381H67.4019C68.0469 247.381 68.5704 246.859 68.5704 246.214V136.654C68.5704 136.01 68.0469 135.487 67.4019 135.487H-27.8486C-28.4936 135.487 -29.0171 136.01 -29.0171 136.654V246.214C-29.0132 246.857 -28.492 247.377 -27.8486 247.381ZM66.2334 245.047H-26.6878L-26.68 137.822H66.2334V245.047Z" fill="#D8D3DA"/>
<path fill-rule="evenodd" clip-rule="evenodd" d="M79.2662 125.932H181.637C182.282 125.932 182.805 125.41 182.805 124.765V14.7933C182.801 12.725 181.121 11.0505 179.051 11.0505H79.2662C78.6212 11.0505 78.0977 11.573 78.0977 12.2177V124.765C78.0977 125.41 78.6212 125.932 79.2662 125.932ZM180.468 123.598H80.4347V13.3849H179.051C179.83 13.3849 180.464 14.0142 180.468 14.7933V123.598Z" fill="#D8D3DA"/>
<path fill-rule="evenodd" clip-rule="evenodd" d="M-27.8486 125.932H67.4019C68.0469 125.932 68.5704 125.41 68.5704 124.765V12.2177C68.5704 11.573 68.0469 11.0505 67.4019 11.0505H-27.8486C-28.4936 11.0505 -29.0171 11.573 -29.0171 12.2177V124.765C-29.0171 125.41 -28.4936 125.932 -27.8486 125.932ZM66.2334 123.598H-26.6878L-26.68 13.3849H66.2334V123.598Z" fill="#D8D3DA"/>
<mask id="mask0_15_71" style="mask-type:alpha" maskUnits="userSpaceOnUse" x="-143" y="12" width="325" height="479">
<path fill-rule="evenodd" clip-rule="evenodd" d="M181.637 14.7929V124.764H79.2662V12.2173H179.051C180.476 12.2173 181.632 13.3691 181.637 14.7929ZM-39.7054 124.764V12.2173H-139.498C-140.922 12.2173 -142.076 13.3704 -142.076 14.7929V124.764H-39.7054ZM181.637 488.287V379.412H79.2662V490.854H179.051C179.735 490.857 180.391 490.587 180.876 490.106C181.361 489.624 181.635 488.97 181.637 488.287ZM-27.841 379.412H67.4173V490.854H-27.841V379.412ZM-39.7054 490.854V379.412H-142.076V488.287C-142.076 488.969 -141.804 489.623 -141.321 490.105C-140.837 490.587 -140.181 490.857 -139.498 490.854H-39.7054ZM79.2662 258.01H181.637V367.585H79.2662V258.01ZM67.4173 258.01H-27.841V367.585H67.4173V258.01ZM-142.076 258.01H-39.7054V367.585H-142.076V258.01ZM181.637 136.615H79.2662V246.174H181.637V136.615ZM-27.841 136.615H67.4173V246.174H-27.841V136.615ZM-39.7054 136.615H-142.076V246.174H-39.7054V136.615ZM67.4173 12.2173H-27.841V124.772H67.4173V12.2173Z" fill="white"/>
</mask>
<g mask="url(#mask0_15_71)">
<path fill-rule="evenodd" clip-rule="evenodd" d="M4.57429 492.396H179.339C181.337 492.383 182.947 490.757 182.938 488.762V222.552C182.938 221.907 182.415 221.385 181.77 221.385H4.57429C3.92926 221.385 3.40576 221.907 3.40576 222.552V491.229C3.40576 491.873 3.92926 492.396 4.57429 492.396ZM179.339 490.062H5.74282V223.719H180.601V488.762C180.61 489.468 180.046 490.048 179.339 490.062Z" fill="#D8D3DA"/>
<path fill-rule="evenodd" clip-rule="evenodd" d="M-1.79827 289.578H192.73C193.375 289.578 193.899 289.056 193.899 288.411V273.922C193.899 273.278 193.375 272.755 192.73 272.755H-1.79827C-2.4433 272.755 -2.9668 273.278 -2.9668 273.922V288.411C-2.9668 289.056 -2.4433 289.578 -1.79827 289.578ZM191.562 287.244H-0.629743V275.089H191.562V287.244Z" fill="#D8D3DA"/>
<path fill-rule="evenodd" clip-rule="evenodd" d="M32.7125 258.843H44.5769C45.2219 258.843 45.7454 258.32 45.7454 257.676V236.597C45.7454 235.952 45.2219 235.43 44.5769 235.43H32.7125C32.0674 235.43 31.5439 235.952 31.5439 236.597V257.676C31.5439 258.32 32.0674 258.843 32.7125 258.843ZM43.4084 256.509H33.881L33.9044 237.764H43.4084V256.509Z" fill="#D8D3DA"/>
<path fill-rule="evenodd" clip-rule="evenodd" d="M65.0181 258.843H76.8904C77.5354 258.843 78.0589 258.32 78.0589 257.676V236.597C78.0589 235.952 77.5354 235.43 76.8904 235.43H65.0181C64.3731 235.43 63.8496 235.952 63.8496 236.597V257.676C63.8496 258.32 64.3731 258.843 65.0181 258.843ZM75.7219 256.509H66.1867V237.764H75.7219V256.509Z" fill="#D8D3DA"/>
<path fill-rule="evenodd" clip-rule="evenodd" d="M97.1138 258.843H108.978C109.623 258.843 110.147 258.32 110.147 257.676V236.597C110.147 235.952 109.623 235.43 108.978 235.43H97.1138C96.4688 235.43 95.9453 235.952 95.9453 236.597V257.676C95.9453 258.32 96.4688 258.843 97.1138 258.843ZM107.81 256.509H98.2824V237.764H107.81V256.509Z" fill="#D8D3DA"/>
<path fill-rule="evenodd" clip-rule="evenodd" d="M131.18 258.843H143.053C143.698 258.843 144.221 258.32 144.221 257.676V236.597C144.221 235.952 143.698 235.43 143.053 235.43H131.18C130.535 235.43 130.012 235.952 130.012 236.597V257.676C130.012 258.32 130.535 258.843 131.18 258.843ZM141.884 256.509H132.349V237.764H141.884V256.509Z" fill="#D8D3DA"/>
<path fill-rule="evenodd" clip-rule="evenodd" d="M163.494 258.843H175.358C176.003 258.843 176.527 258.32 176.527 257.676V236.597C176.527 235.952 176.003 235.43 175.358 235.43H163.494C162.849 235.43 162.325 235.952 162.325 236.597V257.676C162.325 258.32 162.849 258.843 163.494 258.843ZM174.19 256.509H164.662V237.764H174.19V256.509Z" fill="#D8D3DA"/>
<path fill-rule="evenodd" clip-rule="evenodd" d="M-2.24212 223.719H181.77C182.084 223.719 182.384 223.593 182.604 223.369C182.824 223.145 182.944 222.842 182.938 222.528V208.476C182.938 207.83 182.415 207.308 181.77 207.308H-2.24212C-2.88714 207.308 -3.41064 207.83 -3.41064 208.476V222.552C-3.41064 223.196 -2.88714 223.719 -2.24212 223.719ZM180.601 221.385H-1.07359V209.666H180.601V221.385Z" fill="#D8D3DA"/>
<path fill-rule="evenodd" clip-rule="evenodd" d="M90.7725 209.666H157.558C157.873 209.668 158.176 209.542 158.398 209.318C158.619 209.094 158.74 208.79 158.734 208.475V186.641C158.73 184.733 157.193 183.18 155.283 183.155L135.434 182.969V171.725C135.434 170.292 134.274 169.13 132.839 169.126H108.02C106.586 169.13 105.426 170.292 105.426 171.725V190.789C105.428 190.966 105.358 191.138 105.232 191.264C105.106 191.39 104.934 191.46 104.756 191.458H92.4474C90.8762 191.462 89.604 192.736 89.604 194.306V208.499C89.604 209.143 90.1275 209.666 90.7725 209.666ZM156.389 207.332H91.9099V194.306C91.9076 194.17 91.9605 194.04 92.0556 193.943C92.1506 193.846 92.2807 193.792 92.4163 193.792H104.725C106.386 193.792 107.732 192.447 107.732 190.789V171.725C107.732 171.582 107.845 171.464 107.989 171.46H132.801C132.944 171.464 133.058 171.582 133.058 171.725V184.128C133.058 184.769 133.576 185.291 134.218 185.295L155.252 185.49C155.881 185.502 156.385 186.013 156.389 186.641V207.332Z" fill="#D8D3DA"/>
<path fill-rule="evenodd" clip-rule="evenodd" d="M172.281 209.666H182.174C182.488 209.666 182.789 209.54 183.009 209.316C183.229 209.092 183.349 208.789 183.343 208.475V198.617C183.343 197.972 182.819 197.449 182.174 197.449H172.281C171.636 197.449 171.112 197.972 171.112 198.617V208.499C171.112 209.143 171.636 209.666 172.281 209.666ZM181.006 207.332H173.449V199.784H181.006V207.332Z" fill="#D8D3DA"/>
<path fill-rule="evenodd" clip-rule="evenodd" d="M-2.23427 313.07H169.757C171.311 313.066 172.57 311.806 172.57 310.254V298.185C172.57 296.633 171.311 295.372 169.757 295.368H137.958C137.529 295.368 137.102 295.297 136.696 295.158L86.7607 278.04C85.7753 277.709 84.708 277.709 83.7226 278.04L33.4681 295.057C32.8379 295.268 32.1773 295.376 31.5128 295.376H-2.23427C-4.09379 295.376 -5.60275 296.879 -5.60742 298.738V309.709C-5.60275 311.566 -4.09379 313.07 -2.23427 313.07ZM-3.27037 298.73C-3.26569 298.161 -2.80374 297.703 -2.23427 297.703L31.4816 297.71C32.4009 297.711 33.3139 297.561 34.1848 297.267L84.447 280.249C84.9518 280.075 85.5003 280.075 86.0051 280.249L135.94 297.368C136.59 297.588 137.271 297.701 137.958 297.703H169.757C169.885 297.703 170.007 297.754 170.096 297.844C170.186 297.935 170.235 298.057 170.232 298.185V310.254C170.235 310.381 170.186 310.503 170.096 310.595C170.007 310.685 169.885 310.736 169.757 310.736H-2.23427C-2.80374 310.736 -3.26569 310.278 -3.27037 309.709V298.73Z" fill="#D8D3DA"/>
<path fill-rule="evenodd" clip-rule="evenodd" d="M23.9171 336.344H45.4569C46.1019 336.344 46.6254 335.821 46.6254 335.177V324.198C46.6254 323.553 46.1019 323.031 45.4569 323.031H23.9171C23.2713 323.031 22.7485 323.553 22.7485 324.198V335.177C22.7485 335.821 23.2713 336.344 23.9171 336.344ZM44.2884 334.01H25.0856V325.365H44.2884V334.01Z" fill="#D8D3DA"/>
<path fill-rule="evenodd" clip-rule="evenodd" d="M28.9727 398.913H40.1828C40.8278 398.913 41.3513 398.39 41.3513 397.746V335.177C41.3513 334.533 40.8278 334.01 40.1828 334.01H28.9727C28.3277 334.01 27.8042 334.533 27.8042 335.177V397.746C27.8042 398.39 28.3277 398.913 28.9727 398.913ZM39.0143 396.578H30.1413V336.344H39.0143V396.578Z" fill="#D8D3DA"/>
<path d="M45.4569 398.912H23.9171C23.2713 398.912 22.7485 398.39 22.7485 397.745C22.7485 397.1 23.2713 396.577 23.9171 396.577H45.4569C46.1019 396.577 46.6254 397.1 46.6254 397.745C46.6254 398.39 46.1019 398.912 45.4569 398.912Z" fill="#D8D3DA"/>
<path fill-rule="evenodd" clip-rule="evenodd" d="M121.512 336.344H143.052C143.697 336.344 144.221 335.821 144.221 335.177V324.198C144.221 323.553 143.697 323.031 143.052 323.031H121.512C120.867 323.031 120.344 323.553 120.344 324.198V335.177C120.344 335.821 120.867 336.344 121.512 336.344ZM141.884 334.01H122.681L122.712 325.365H141.884V334.01Z" fill="#D8D3DA"/>
<path fill-rule="evenodd" clip-rule="evenodd" d="M126.607 398.913H137.778C138.094 398.924 138.402 398.805 138.63 398.585C138.857 398.365 138.986 398.062 138.986 397.746V335.177C138.986 334.533 138.462 334.01 137.817 334.01H126.607C125.962 334.01 125.438 334.533 125.438 335.177V397.746C125.438 398.39 125.962 398.913 126.607 398.913ZM136.61 396.578H127.737V336.344H136.61V396.578Z" fill="#D8D3DA"/>
<path d="M143.052 398.912H121.512C120.867 398.912 120.344 398.39 120.344 397.745C120.344 397.1 120.867 396.577 121.512 396.577H143.052C143.697 396.577 144.221 397.1 144.221 397.745C144.221 398.39 143.697 398.912 143.052 398.912Z" fill="#D8D3DA"/>
<path fill-rule="evenodd" clip-rule="evenodd" d="M66.2335 336.344H100.736C101.381 336.344 101.905 335.821 101.905 335.177V324.198C101.905 323.553 101.381 323.031 100.736 323.031H66.2335C65.5884 323.031 65.0649 323.553 65.0649 324.198V335.177C65.0649 335.821 65.5884 336.344 66.2335 336.344ZM99.5676 334.01H67.402V325.365H99.5676V334.01Z" fill="#D8D3DA"/>
<path fill-rule="evenodd" clip-rule="evenodd" d="M72.2471 398.913H94.6673C95.3123 398.913 95.8358 398.39 95.8358 397.746V335.177C95.8358 334.533 95.3123 334.01 94.6673 334.01H72.2471C71.6021 334.01 71.0786 334.533 71.0786 335.177V397.746C71.0786 398.39 71.6021 398.913 72.2471 398.913ZM93.4987 396.578H73.4157V336.344H93.4987V396.578Z" fill="#D8D3DA"/>
<path d="M100.845 398.912H66.1163C65.4713 398.912 64.9478 398.39 64.9478 397.745C64.9478 397.1 65.4713 396.577 66.1163 396.577H100.845C101.49 396.577 102.013 397.1 102.013 397.745C102.013 398.39 101.49 398.912 100.845 398.912Z" fill="#D8D3DA"/>
<path fill-rule="evenodd" clip-rule="evenodd" d="M23.6988 443.039H45.2386C45.8689 443.04 46.3861 442.54 46.4072 441.911V430.9C46.4072 430.256 45.8837 429.733 45.2386 429.733H23.6988C23.0538 429.733 22.5303 430.256 22.5303 430.9V441.872C22.5303 442.517 23.0538 443.039 23.6988 443.039ZM44.0701 440.705H24.8673V432.068H44.0701V440.705Z" fill="#D8D3DA"/>
<path fill-rule="evenodd" clip-rule="evenodd" d="M28.755 492.396H39.965C40.5952 492.396 41.1125 491.897 41.1335 491.268V441.912C41.1335 441.267 40.61 440.745 39.965 440.745H28.755C28.1099 440.745 27.5864 441.267 27.5864 441.912V491.229C27.5864 491.873 28.1099 492.396 28.755 492.396ZM38.7965 490.062H29.9235V443.04H38.7965V490.062Z" fill="#D8D3DA"/>
<path fill-rule="evenodd" clip-rule="evenodd" d="M121.287 443.039H142.834C143.465 443.04 143.982 442.54 144.003 441.911V430.9C144.003 430.256 143.479 429.733 142.834 429.733H121.287C120.641 429.733 120.118 430.256 120.118 430.9V441.872C120.118 442.517 120.641 443.039 121.287 443.039ZM141.666 440.705H122.455V432.068H141.666V440.705Z" fill="#D8D3DA"/>
<path fill-rule="evenodd" clip-rule="evenodd" d="M126.342 492.396H137.552C138.183 492.396 138.7 491.897 138.721 491.268V441.912C138.721 441.267 138.198 440.745 137.552 440.745H126.342C125.699 440.749 125.178 441.269 125.174 441.912V491.229C125.174 491.873 125.697 492.396 126.342 492.396ZM136.384 490.062H127.511V443.04H136.384V490.062Z" fill="#D8D3DA"/>
<path fill-rule="evenodd" clip-rule="evenodd" d="M66.0074 443.039H100.518C101.148 443.04 101.665 442.54 101.686 441.911V430.9C101.686 430.256 101.163 429.733 100.518 429.733H66.0074C65.3624 429.733 64.8389 430.256 64.8389 430.9V441.872C64.8389 442.517 65.3624 443.039 66.0074 443.039ZM99.3415 440.705H67.1759L67.1681 432.068H99.3415V440.705Z" fill="#D8D3DA"/>
<path fill-rule="evenodd" clip-rule="evenodd" d="M72.0758 492.396H94.4725C95.1121 492.409 95.6434 491.906 95.6644 491.268V441.912C95.6644 441.267 95.1409 440.745 94.4959 440.745H72.0758C71.4307 440.745 70.9072 441.267 70.9072 441.912V491.229C70.9072 491.873 71.4307 492.396 72.0758 492.396ZM93.304 490.062H73.2209V443.04H93.304V490.062Z" fill="#D8D3DA"/>
<path fill-rule="evenodd" clip-rule="evenodd" d="M-2.01653 422.077H162.613C162.925 422.077 163.223 421.954 163.442 421.733C163.662 421.512 163.784 421.214 163.782 420.902V407.737C163.782 407.092 163.258 406.569 162.613 406.569H-2.01653C-2.66156 406.569 -3.18506 407.092 -3.18506 407.737V420.91C-3.18506 421.554 -2.66156 422.077 -2.01653 422.077ZM161.445 419.743H-0.848005V408.904H161.445V419.743Z" fill="#D8D3DA"/>
<path d="M162.613 492.395C161.968 492.395 161.445 491.872 161.445 491.228V311.903C161.445 311.257 161.968 310.735 162.613 310.735C163.258 310.735 163.782 311.257 163.782 311.903V491.228C163.782 491.872 163.258 492.395 162.613 492.395Z" fill="#D8D3DA"/>
<path fill-rule="evenodd" clip-rule="evenodd" d="M192.801 1.48636C192.098 0.784459 191.146 0.390137 190.152 0.390137H-150.599L-150.797 0.395378C-151.718 0.444179 -152.592 0.832049 -153.247 1.48808C-153.947 2.18948 -154.338 3.14066 -154.338 4.1329V500.799L-154.333 500.997C-154.284 501.917 -153.9 502.79 -153.247 503.444C-152.545 504.147 -151.592 504.542 -150.599 504.542H190.152L190.318 504.538C192.31 504.451 193.899 502.811 193.899 500.799V4.1329L193.893 3.93497C193.845 3.01443 193.457 2.14148 192.801 1.48636ZM-150.599 2.7245H190.152L190.275 2.72995C190.604 2.7589 190.913 2.90223 191.149 3.137C191.413 3.40113 191.562 3.75936 191.562 4.1329V500.799L191.557 500.914C191.498 501.639 190.892 502.208 190.152 502.208H-150.599L-150.722 502.202C-151.049 502.173 -151.358 502.03 -151.592 501.796C-151.854 501.533 -152.001 501.175 -152.001 500.799V4.1329L-151.995 4.00827C-151.967 3.67833 -151.825 3.36956 -151.592 3.13623C-151.329 2.87265 -150.971 2.7245 -150.599 2.7245ZM181.769 378.619C182.377 378.619 182.876 379.082 182.932 379.673L182.938 379.786V488.727C182.935 489.719 182.538 490.67 181.832 491.369C181.174 492.023 180.299 492.407 179.381 492.453L179.183 492.458H79.3987C78.791 492.458 78.2924 491.995 78.2356 491.403L78.2301 491.291V379.786C78.2301 379.179 78.6936 378.681 79.2865 378.624L79.3987 378.619H181.769ZM68.7051 379.673C68.6482 379.082 68.1496 378.619 67.542 378.619H-27.7163L-27.8285 378.624C-28.4213 378.681 -28.8848 379.179 -28.8848 379.786V491.267L-28.8794 491.379C-28.8225 491.971 -28.3239 492.434 -27.7163 492.434H67.542L67.6542 492.429C68.247 492.372 68.7105 491.874 68.7105 491.267V379.786L68.7051 379.673ZM-39.573 378.619C-38.9653 378.619 -38.4668 379.082 -38.4099 379.673L-38.4044 379.786V491.228C-38.4044 491.835 -38.868 492.333 -39.4608 492.39L-39.573 492.396H-139.365C-141.374 492.396 -143.015 490.816 -143.108 488.827L-143.112 488.66V379.786C-143.112 379.179 -142.649 378.681 -142.056 378.624L-141.944 378.619H-39.573ZM80.5672 380.952H180.601V488.723L180.595 488.846C180.565 489.171 180.421 489.48 180.185 489.714L180.093 489.797C179.84 490.008 179.519 490.124 179.186 490.123H80.5672V380.952ZM66.3735 380.952H-26.5478V490.1H66.3735V380.952ZM-140.775 380.952H-40.7415V490.061H-139.365L-139.481 490.056C-140.204 489.998 -140.773 489.394 -140.775 488.657V380.952ZM181.769 257.216C182.377 257.216 182.876 257.679 182.932 258.272L182.938 258.384V368.013C182.938 368.62 182.474 369.118 181.882 369.175L181.769 369.18H79.3987C78.791 369.18 78.2924 368.717 78.2356 368.125L78.2301 368.013V258.384C78.2301 257.777 78.6936 257.279 79.2865 257.222L79.3987 257.216H181.769ZM68.7051 258.272C68.6482 257.679 68.1496 257.216 67.542 257.216H-27.7163L-27.8285 257.222C-28.4213 257.279 -28.8848 257.777 -28.8848 258.384V367.99L-28.8794 368.102C-28.8225 368.694 -28.3239 369.157 -27.7163 369.157H67.542L67.6542 369.151C68.247 369.095 68.7105 368.597 68.7105 367.99V258.384L68.7051 258.272ZM-39.573 257.216C-38.9653 257.216 -38.4668 257.679 -38.4099 258.272L-38.4044 258.384V367.951C-38.4044 368.558 -38.868 369.056 -39.4608 369.112L-39.573 369.118H-141.944C-142.551 369.118 -143.05 368.655 -143.107 368.063L-143.112 367.951V258.384C-143.112 257.777 -142.649 257.279 -142.056 257.222L-141.944 257.216H-39.573ZM80.5672 259.551H180.601V366.845H80.5672V259.551ZM66.3735 259.551H-26.5478V366.822H66.3735V259.551ZM-140.775 259.551H-40.7415V366.783H-140.775V259.551ZM181.769 135.9C182.377 135.9 182.876 136.363 182.932 136.955L182.938 137.067V246.626C182.938 247.233 182.474 247.731 181.882 247.788L181.769 247.793H79.3987C78.791 247.793 78.2924 247.33 78.2356 246.738L78.2301 246.626V137.067C78.2301 136.46 78.6936 135.962 79.2865 135.905L79.3987 135.9H181.769ZM68.7051 136.932C68.6482 136.339 68.1496 135.876 67.542 135.876H-27.7163L-27.8285 135.882C-28.4213 135.939 -28.8848 136.437 -28.8848 137.044V246.603L-28.8794 246.715C-28.8225 247.307 -28.3239 247.77 -27.7163 247.77H67.542L67.6542 247.765C68.247 247.708 68.7105 247.21 68.7105 246.603V137.044L68.7051 136.932ZM-39.573 135.838C-38.9653 135.838 -38.4668 136.301 -38.4099 136.893L-38.4044 137.005V246.564C-38.4044 247.171 -38.868 247.669 -39.4608 247.726L-39.573 247.731H-141.944C-142.551 247.731 -143.05 247.268 -143.107 246.676L-143.112 246.564V137.005C-143.112 136.398 -142.649 135.9 -142.056 135.843L-141.944 135.838H-39.573ZM80.5672 138.233H180.601V245.458H80.5672V138.233ZM66.3735 138.21H-26.5478V245.435H66.3735V138.21ZM-140.775 138.171H-40.7415V245.396H-140.775V138.171ZM-39.573 11.4161C-38.9653 11.4161 -38.4668 11.879 -38.4099 12.4709L-38.4044 12.5833V125.177C-38.4044 125.784 -38.868 126.282 -39.4608 126.339L-39.573 126.344H-141.944C-142.551 126.344 -143.05 125.881 -143.107 125.289L-143.112 125.177V15.1667C-143.112 13.1555 -141.527 11.5133 -139.532 11.4202L-139.365 11.4161H-39.573ZM182.934 14.9996C182.847 13.0057 181.201 11.4161 179.183 11.4161H79.3987L79.2865 11.4214C78.6936 11.478 78.2301 11.9766 78.2301 12.5833V125.138L78.2356 125.25C78.2924 125.843 78.791 126.306 79.3987 126.306H181.769L181.882 126.3C182.474 126.243 182.938 125.745 182.938 125.138V15.1667L182.934 14.9996ZM67.542 11.4161C68.1496 11.4161 68.6482 11.879 68.7051 12.4709L68.7105 12.5833V125.138C68.7105 125.745 68.247 126.243 67.6542 126.3L67.542 126.306H-27.7163C-28.3239 126.306 -28.8225 125.843 -28.8794 125.25L-28.8848 125.138V12.5833C-28.8848 11.9766 -28.4213 11.478 -27.8285 11.4214L-27.7163 11.4161H67.542ZM-139.362 13.7505L-40.7415 13.7497V124.009H-140.775V15.1667L-140.77 15.0507C-140.712 14.3244 -140.104 13.7527 -139.362 13.7505ZM179.183 13.7505L80.5672 13.7497V123.97H180.601V15.1667C180.601 14.4236 180.028 13.8142 179.299 13.7551L179.183 13.7505ZM-26.5478 13.7497H66.3735V123.97H-26.5478V13.7497Z" fill="#D8D3DA"/>
</g>
</g>
</svg>
