<svg width="159" height="161" viewBox="0 0 159 161" fill="none" xmlns="http://www.w3.org/2000/svg">
<path fill-rule="evenodd" clip-rule="evenodd" d="M43.7402 73.8352H117.278C121.547 73.8306 125.007 70.3709 125.012 66.1013V56.3904C125.007 52.1208 121.547 48.661 117.278 48.6565H43.7402C39.4709 48.661 36.0109 52.1208 36.0063 56.3904V66.1013C36.0109 70.3709 39.4709 73.8306 43.7402 73.8352ZM36.81 56.3877C36.8146 52.562 39.9145 49.462 43.7402 49.4575H117.278C121.104 49.462 124.204 52.562 124.208 56.3877V66.0986C124.204 69.9243 121.104 73.0243 117.278 73.0288H43.7402C39.9145 73.0243 36.8146 69.9243 36.81 66.0986V56.3877Z" fill="#D8D3DA"/>
<path fill-rule="evenodd" clip-rule="evenodd" d="M43.1089 64.2236C44.3141 67.134 47.1537 69.0317 50.3038 69.0317C54.6018 69.0271 58.0854 65.5449 58.0913 61.2469C58.0923 58.0968 56.1957 55.2564 53.2856 54.0504C50.3759 52.8441 47.0259 53.5098 44.7982 55.7367C42.5704 57.9637 41.9037 61.3133 43.1089 64.2236ZM43.32 61.2469C43.32 57.3898 46.4468 54.2631 50.3038 54.2631C54.1595 54.266 57.2847 57.3909 57.2876 61.2469C57.2876 65.1039 54.1608 68.2307 50.3038 68.2307C46.4468 68.2307 43.32 65.1039 43.32 61.2469Z" fill="#D8D3DA"/>
<path d="M86.0558 58.3298H64.29C64.0682 58.3298 63.8882 58.1498 63.8882 57.928C63.8882 57.7061 64.0682 57.5261 64.29 57.5261H86.0558C86.2779 57.5261 86.4576 57.7061 86.4576 57.928C86.4576 58.1498 86.2779 58.3298 86.0558 58.3298Z" fill="#D8D3DA"/>
<path d="M97.1597 64.8984H64.29C64.0682 64.8984 63.8882 64.7184 63.8882 64.4966C63.8882 64.2747 64.0682 64.0947 64.29 64.0947H97.1597C97.3818 64.0947 97.5616 64.2747 97.5616 64.4966C97.5616 64.7184 97.3818 64.8984 97.1597 64.8984Z" fill="#D8D3DA"/>
<path fill-rule="evenodd" clip-rule="evenodd" d="M42.9366 112.443H118.082C119.921 112.441 121.685 111.709 122.984 110.408C124.284 109.106 125.013 107.341 125.012 105.502V94.1917C125.007 90.366 121.907 87.266 118.082 87.2615H42.9366C39.1109 87.266 36.0109 90.366 36.0063 94.1917V105.513C36.0093 109.339 39.1104 112.44 42.9366 112.443ZM36.81 94.1917C36.8146 90.8099 39.5548 88.0697 42.9366 88.0651L118.09 88.0544C121.471 88.059 124.212 90.7992 124.216 94.181V105.502C124.212 108.887 121.467 111.628 118.082 111.628H42.9366C39.5548 111.624 36.8146 108.884 36.81 105.502V94.1917Z" fill="#D8D3DA"/>
<path fill-rule="evenodd" clip-rule="evenodd" d="M43.1092 102.838C44.3145 105.748 47.1541 107.645 50.3039 107.645C54.6029 107.64 58.0868 104.157 58.0913 99.8576C58.0913 96.7078 56.1939 93.8682 53.2838 92.6629C50.3741 91.4575 47.0244 92.1237 44.7972 94.3509C42.57 96.5781 41.9037 99.9278 43.1092 102.838ZM43.8513 97.1883C44.9322 94.5783 47.479 92.8764 50.3039 92.8764V92.8711C54.1606 92.874 57.2861 96.0008 57.2877 99.8576C57.2888 102.682 55.5879 105.23 52.9782 106.312C50.3687 107.394 47.3643 106.797 45.3664 104.8C43.3685 102.802 42.7706 99.7984 43.8513 97.1883Z" fill="#D8D3DA"/>
<path d="M97.1598 96.9296H77.0307C76.8087 96.9296 76.6289 96.7496 76.6289 96.5278C76.6289 96.306 76.8087 96.126 77.0307 96.126H97.1598C97.3816 96.126 97.5616 96.306 97.5616 96.5278C97.5616 96.7496 97.3816 96.9296 97.1598 96.9296Z" fill="#D8D3DA"/>
<path d="M72.8546 96.9296H64.2822C64.0604 96.9296 63.8804 96.7496 63.8804 96.5278C63.8804 96.306 64.0604 96.126 64.2822 96.126H72.8546C73.0764 96.126 73.2564 96.306 73.2564 96.5278C73.2564 96.7496 73.0764 96.9296 72.8546 96.9296Z" fill="#D8D3DA"/>
<path d="M97.1597 103.506H64.29C64.0682 103.506 63.8882 103.326 63.8882 103.104C63.8882 102.883 64.0682 102.703 64.29 102.703H97.1597C97.3818 102.703 97.5616 102.883 97.5616 103.104C97.5616 103.326 97.3818 103.506 97.1597 103.506Z" fill="#D8D3DA"/>
</svg>
