<svg width="20" height="19" viewBox="0 0 20 19" fill="none" xmlns="http://www.w3.org/2000/svg">
<path fill-rule="evenodd" clip-rule="evenodd" d="M6.91211 0H14.0371C17.3158 0 19.9746 2.65881 19.9746 5.9375V13.0625C19.9746 16.3412 17.3158 19 14.0371 19H6.91211C3.63342 19 0.974609 16.3412 0.974609 13.0625V5.9375C0.974609 2.65881 3.63342 0 6.91211 0ZM14.0371 17.2188C16.3289 17.2188 18.1933 15.3544 18.1933 13.0625V5.9375C18.1933 3.64563 16.3289 1.78125 14.0371 1.78125H6.91205C4.62018 1.78125 2.7558 3.64563 2.7558 5.9375V13.0625C2.7558 15.3544 4.62018 17.2188 6.91205 17.2188H14.0371Z" fill="#757889"/>
<path fill-rule="evenodd" clip-rule="evenodd" d="M5.72461 9.5C5.72461 6.87681 7.85142 4.75 10.4746 4.75C13.0978 4.75 15.2246 6.87681 15.2246 9.5C15.2246 12.1232 13.0978 14.25 10.4746 14.25C7.85142 14.25 5.72461 12.1232 5.72461 9.5ZM7.5058 9.5C7.5058 11.1364 8.83818 12.4688 10.4746 12.4688C12.1109 12.4688 13.4433 11.1364 13.4433 9.5C13.4433 7.86244 12.1109 6.53125 10.4746 6.53125C8.83818 6.53125 7.5058 7.86244 7.5058 9.5Z" fill="#757889"/>
<circle cx="15.2248" cy="3.88641" r="0.431818" fill="#757889"/>
</svg>
