<svg width="162" height="40" viewBox="0 0 162 40" fill="none" xmlns="http://www.w3.org/2000/svg">
<g clip-path="url(#clip0_15_1693)">
<path d="M5.84825 5.85031C13.1517 -1.45528 24.7088 -1.9128 32.57 4.44454L22.7967 14.2178C21.4297 13.5559 19.8725 13.3999 18.4014 13.7774C16.9303 14.1549 15.6405 15.0415 14.7609 16.2799C13.8813 17.5183 13.4687 19.0284 13.5964 20.5422C13.7242 22.056 14.3839 23.4755 15.4586 24.5489C17.9594 27.0513 22.0287 27.0513 24.5451 24.5489C25.4876 23.6025 26.1133 22.3867 26.3358 21.0695C26.5583 19.7522 26.3667 18.3984 25.7874 17.1946L35.5607 7.43762C41.9177 15.2782 41.4448 26.8343 34.1414 34.1407C26.8379 41.447 15.2786 41.9178 7.43583 35.5634L10.4435 32.5379C16.6219 37.2791 25.493 36.8046 31.1492 31.1498C34.0111 28.3113 35.6626 24.4742 35.757 20.4438H31.5416C31.4544 22.7169 30.6984 24.9136 29.3683 26.7587C28.0382 28.6037 26.1932 30.015 24.0646 30.8156C21.936 31.6161 19.6185 31.7703 17.4026 31.2589C15.1868 30.7474 13.1712 29.5931 11.6084 27.9405C10.0457 26.288 9.00542 24.2108 8.61798 21.9693C8.23053 19.7278 8.51317 17.4218 9.43047 15.3403C10.3478 13.2588 11.8589 11.4945 13.7744 10.2685C15.69 9.04254 17.9247 8.40944 20.1984 8.4486V4.23201C18.0932 4.20418 16.0037 4.59759 14.0527 5.38912C12.1017 6.18065 10.3285 7.35434 8.8375 8.84118C3.18361 14.4953 2.72622 23.3697 7.44837 29.5647L4.44216 32.5718C-1.91627 24.7113 -1.45962 13.1552 5.84383 5.85031H5.84825Z" fill="#7A76FF"/>
</g>
<path d="M50.8239 25.5231C49.5748 24.3031 48.9502 22.7602 48.9502 20.8942C48.9502 19.0283 49.5748 17.4913 50.8239 16.2833C52.085 15.0633 53.6224 14.4533 55.4361 14.4533C56.8413 14.4533 58.0905 14.824 59.1835 15.5656C60.2764 16.3072 61.0391 17.3358 61.4715 18.6516H57.7962C57.3158 17.7306 56.5471 17.2701 55.4901 17.2701C54.4332 17.2701 53.5984 17.599 52.9858 18.2568C52.3853 18.9147 52.085 19.7938 52.085 20.8942C52.085 21.9947 52.3853 22.8738 52.9858 23.5316C53.5984 24.1895 54.4332 24.5184 55.4901 24.5184C56.5471 24.5184 57.3158 24.0579 57.7962 23.1369H61.4715C61.0391 24.4526 60.2764 25.4812 59.1835 26.2229C58.0905 26.9645 56.8413 27.3352 55.4361 27.3352C53.6224 27.3352 52.085 26.7312 50.8239 25.5231ZM66.5281 13.9509V18.6874C67.1648 17.6349 68.1797 17.1086 69.5729 17.1086C70.7259 17.1086 71.6569 17.4913 72.3654 18.2568C73.0861 19.0223 73.4464 20.0629 73.4464 21.3787V27.2276H70.3836V21.7913C70.3836 21.1454 70.2095 20.649 69.8612 20.3022C69.5249 19.9433 69.0565 19.7639 68.4559 19.7639C67.8554 19.7639 67.381 19.9433 67.0326 20.3022C66.6963 20.649 66.5281 21.1454 66.5281 21.7913V27.2276H63.4474V13.9509H66.5281ZM82.1879 24.0519C82.6323 23.6213 82.8545 23.0113 82.8545 22.2219C82.8545 21.4325 82.6323 20.8285 82.1879 20.4098C81.7434 19.9792 81.2331 19.7639 80.6565 19.7639C80.08 19.7639 79.5695 19.9792 79.1251 20.4098C78.6807 20.8404 78.4585 21.4504 78.4585 22.2398C78.4585 23.0293 78.6807 23.6393 79.1251 24.0699C79.5695 24.4885 80.08 24.6978 80.6565 24.6978C81.2331 24.6978 81.7434 24.4825 82.1879 24.0519ZM76.6569 25.9178C75.7681 24.9609 75.3237 23.735 75.3237 22.2398C75.3237 20.7447 75.7681 19.5187 76.6569 18.5619C77.5456 17.593 78.6266 17.1086 79.8998 17.1086C81.1849 17.1086 82.1699 17.5811 82.8545 18.526V17.2162H85.9353V27.2276H82.8545V25.7743C82.1098 26.8268 81.1129 27.3532 79.8638 27.3532C78.6146 27.3532 77.5456 26.8748 76.6569 25.9178ZM91.7229 17.2162V18.6874C92.3594 17.6349 93.3744 17.1086 94.7677 17.1086C95.5123 17.1086 96.1729 17.2761 96.7495 17.611C97.338 17.9459 97.7944 18.4243 98.1187 19.0463C98.491 18.4602 98.9714 17.9937 99.56 17.6468C100.16 17.288 100.827 17.1086 101.56 17.1086C102.785 17.1086 103.758 17.4854 104.478 18.2389C105.199 18.9924 105.559 20.039 105.559 21.3787V27.2276H102.497V21.7913C102.497 21.1454 102.322 20.649 101.974 20.3022C101.638 19.9433 101.169 19.7639 100.569 19.7639C99.9683 19.7639 99.4939 19.9433 99.1456 20.3022C98.8092 20.649 98.6412 21.1454 98.6412 21.7913V27.2276H95.5784V21.7913C95.5784 21.1454 95.4042 20.649 95.0559 20.3022C94.7195 19.9433 94.2511 19.7639 93.6507 19.7639C93.0501 19.7639 92.5756 19.9433 92.2274 20.3022C91.891 20.649 91.7229 21.1454 91.7229 21.7913V27.2276H88.6421V17.2162H91.7229ZM114.982 24.0699C115.426 23.6393 115.648 23.0293 115.648 22.2398C115.648 21.4504 115.426 20.8404 114.982 20.4098C114.537 19.9792 114.027 19.7639 113.45 19.7639C112.874 19.7639 112.363 19.9792 111.919 20.4098C111.474 20.8285 111.252 21.4325 111.252 22.2219C111.252 23.0113 111.474 23.6213 111.919 24.0519C112.363 24.4825 112.874 24.6978 113.45 24.6978C114.027 24.6978 114.537 24.4885 114.982 24.0699ZM111.252 18.526C111.937 17.5811 112.916 17.1086 114.189 17.1086C115.474 17.1086 116.561 17.593 117.45 18.5619C118.339 19.5187 118.783 20.7447 118.783 22.2398C118.783 23.735 118.339 24.9609 117.45 25.9178C116.561 26.8748 115.486 27.3532 114.225 27.3532C112.964 27.3532 111.973 26.8268 111.252 25.7743V32H108.172V17.2162H111.252V18.526ZM123.562 16.0859C123.213 16.4328 122.787 16.6062 122.283 16.6062C121.778 16.6062 121.352 16.4328 121.003 16.0859C120.655 15.7391 120.481 15.3144 120.481 14.8121C120.481 14.2978 120.655 13.8672 121.003 13.5203C121.352 13.1734 121.778 13 122.283 13C122.787 13 123.213 13.1734 123.562 13.5203C123.91 13.8672 124.084 14.2978 124.084 14.8121C124.084 15.3144 123.91 15.7391 123.562 16.0859ZM120.751 27.2276V17.2162H123.832V27.2276H120.751ZM132.575 24.0878C132.983 23.6572 133.188 23.0353 133.188 22.2219C133.188 21.4086 132.978 20.7926 132.557 20.3739C132.137 19.9433 131.638 19.728 131.062 19.728C130.485 19.728 129.987 19.9433 129.566 20.3739C129.158 20.7926 128.954 21.4086 128.954 22.2219C128.954 23.0353 129.164 23.6572 129.584 24.0878C130.017 24.5184 130.521 24.7337 131.098 24.7337C131.674 24.7337 132.167 24.5184 132.575 24.0878ZM127.332 25.9358C126.323 24.9909 125.819 23.7469 125.819 22.204C125.819 20.661 126.323 19.429 127.332 18.508C128.341 17.5751 129.59 17.1086 131.08 17.1086C132.569 17.1086 133.812 17.5751 134.809 18.508C135.818 19.429 136.323 20.661 136.323 22.204C136.323 23.7469 135.824 24.9909 134.827 25.9358C133.83 26.8807 132.587 27.3532 131.098 27.3532C129.609 27.3532 128.353 26.8807 127.332 25.9358ZM141.391 17.2162V18.6874C142.027 17.6349 143.042 17.1086 144.436 17.1086C145.589 17.1086 146.52 17.4913 147.228 18.2568C147.949 19.0223 148.309 20.0629 148.309 21.3787V27.2276H145.246V21.7913C145.246 21.1454 145.072 20.649 144.724 20.3022C144.388 19.9433 143.919 19.7639 143.319 19.7639C142.718 19.7639 142.244 19.9433 141.895 20.3022C141.559 20.649 141.391 21.1454 141.391 21.7913V27.2276H138.31V17.2162H141.391ZM153.555 27.0302L149.646 17.2162H153.141L155.375 23.7649L157.825 17.2162H161.05L154.636 32H151.411L153.555 27.0302Z" fill="#2D2E37"/>
<defs>
<clipPath id="clip0_15_1693">
<rect width="40" height="40" fill="white"/>
</clipPath>
</defs>
</svg>
