<svg width="20" height="17" viewBox="0 0 20 17" fill="none" xmlns="http://www.w3.org/2000/svg">
<path d="M19.9746 2.5551C19.268 2.86504 18.5152 3.07048 17.7302 3.17023C18.5377 2.6881 19.154 1.93048 19.4438 1.01729C18.6909 1.46616 17.8597 1.78323 16.9738 1.96016C16.2589 1.19898 15.24 0.727539 14.1285 0.727539C11.972 0.727539 10.2359 2.47791 10.2359 4.62373C10.2359 4.93248 10.262 5.22935 10.3262 5.51198C7.08786 5.35404 4.22242 3.80198 2.29748 1.43766C1.96142 2.02073 1.7643 2.6881 1.7643 3.40654C1.7643 4.75554 2.45898 5.95135 3.49448 6.64366C2.86867 6.63179 2.25473 6.4501 1.73461 6.16391C1.73461 6.17579 1.73461 6.19123 1.73461 6.20666C1.73461 8.09954 3.0848 9.67179 4.85536 10.034C4.5383 10.1207 4.19273 10.1622 3.83411 10.1622C3.58473 10.1622 3.33298 10.148 3.09667 10.0957C3.60136 11.6383 5.03348 12.7724 6.73636 12.8092C5.41111 13.8459 3.72842 14.4705 1.9068 14.4705C1.58736 14.4705 1.28098 14.4562 0.974609 14.417C2.70005 15.5297 4.74492 16.165 6.95011 16.165C14.1179 16.165 18.0366 10.2275 18.0366 5.08091C18.0366 4.90873 18.0307 4.74248 18.0224 4.57741C18.7954 4.02879 19.445 3.3436 19.9746 2.5551Z" fill="#757889"/>
</svg>
